<svg xmlns="http://www.w3.org/2000/svg" xmlns:xlink="http://www.w3.org/1999/xlink" version="1.1" x="0px" y="0px" viewBox="0 0 129.469 100" enable-background="new 0 0 129.469 100" xml:space="preserve"><path d="M92.494,57.127c-1.539,0-2.786,1.246-2.786,2.785c0,0.428,0.104,0.828,0.278,1.192l-0.027,0.012  c1.729,3.679,2.708,7.775,2.708,12.102s-0.979,8.424-2.708,12.103l0.027,0.013c-0.174,0.363-0.278,0.765-0.278,1.193  c0,1.538,1.247,2.784,2.786,2.784c1.212,0,2.233-0.779,2.615-1.86c1.998-4.336,3.128-9.151,3.128-14.231s-1.13-9.896-3.128-14.231  C94.728,57.904,93.706,57.127,92.494,57.127z"></path><path d="M106.763,51.834c-1.538,0-2.784,1.248-2.784,2.785c0,0.425,0.102,0.821,0.271,1.183l-0.014,0.006  c2.538,5.282,3.986,11.183,4.041,17.412c-0.055,6.229-1.503,12.13-4.041,17.413l0.014,0.006c-0.17,0.359-0.271,0.758-0.271,1.181  c0,1.538,1.246,2.785,2.784,2.785c1.175,0,2.175-0.728,2.584-1.758c2.833-5.963,4.446-12.61,4.501-19.626  c-0.055-7.016-1.668-13.663-4.501-19.625C108.938,52.563,107.938,51.834,106.763,51.834z"></path><path d="M123.938,48.227c-0.03-0.081-0.067-0.157-0.104-0.233l0,0c-0.456-0.918-1.393-1.556-2.487-1.556  c-1.539,0-2.785,1.247-2.785,2.785c0,0.405,0.091,0.787,0.246,1.135l-0.013,0.006c3.268,6.942,5.103,14.687,5.103,22.855  c0,8.169-1.835,15.913-5.103,22.855l0.013,0.006c-0.155,0.348-0.246,0.729-0.246,1.135c0,1.539,1.246,2.785,2.785,2.785  c1.095,0,2.031-0.638,2.487-1.555c0-0.001,0-0.001,0-0.001c0.037-0.077,0.074-0.153,0.104-0.233  c3.543-7.602,5.53-16.067,5.53-24.991C129.469,64.295,127.48,55.829,123.938,48.227z"></path><path d="M83.819,58.562l-7.929-19.961c0,0-0.817-8.27-1.564-11.437C71.025,12.923,55.149,0,37.931,0C16.986,0,0,16.989,0,37.952  c0,12.106,5.67,22.896,14.5,29.842v32.204h40.486V88.384h5.945c8.26,0,14.959-6.7,14.959-14.968V62.811h5.087  c1.689,0,3.069-1.375,3.069-3.059C84.048,59.328,83.971,58.922,83.819,58.562z M62.691,47.103c-2.865,0-5.188-2.322-5.188-5.188  c0-2.865,2.323-5.188,5.188-5.188c2.866,0,5.188,2.323,5.188,5.188C67.88,44.781,65.558,47.103,62.691,47.103z"></path></svg>