<svg xmlns="http://www.w3.org/2000/svg" xmlns:xlink="http://www.w3.org/1999/xlink" version="1.1" x="0px" y="0px" viewBox="0 0 48 60" enable-background="new 0 0 48 48" xml:space="preserve"><g><path fill="none" stroke="#000000" stroke-width="2" stroke-linecap="round" stroke-linejoin="round" stroke-miterlimit="10" d="   M24.966,38.921c-1.631,1.632-4.3,1.632-5.932,0l-9.956-9.956c-1.632-1.631-1.632-4.3,0-5.933l20.81-20.808   c1.632-1.632,4.302-1.632,5.934,0l9.954,9.954c1.632,1.633,1.632,4.301,0,5.934L24.966,38.921z"/><rect x="3.357" y="32.185" transform="matrix(0.707 0.7072 -0.7072 0.707 29.8816 4.2523)" fill="none" stroke="#000000" stroke-width="2" stroke-linecap="round" stroke-linejoin="round" stroke-miterlimit="10" width="12.903" height="12.012"/><g><circle cx="7.852" cy="36.232" r="0.863"/><circle cx="11.767" cy="40.148" r="0.863"/></g><rect x="24.324" y="9.227" transform="matrix(0.7071 0.7071 -0.7071 0.7071 21.3327 -15.8817)" fill="none" stroke="#000000" stroke-width="2" stroke-linecap="round" stroke-linejoin="round" stroke-miterlimit="10" width="11.025" height="17.164"/></g><text x="0" y="63" fill="#000000" font-size="5px" font-weight="bold" font-family="'Helvetica Neue', Helvetica, Arial-Unicode, Arial, Sans-serif">Created by Creative Stall</text><text x="0" y="68" fill="#000000" font-size="5px" font-weight="bold" font-family="'Helvetica Neue', Helvetica, Arial-Unicode, Arial, Sans-serif">from the Noun Project</text></svg>