<svg xmlns="http://www.w3.org/2000/svg" xmlns:xlink="http://www.w3.org/1999/xlink" version="1.1" x="0px" y="0px" viewBox="0 0 100 125" enable-background="new 0 0 100 100" xml:space="preserve"><g><path d="M71.078,21.155H27.994c-2.249,0-4.072,1.823-4.072,4.072v49.546c0,2.249,1.823,4.072,4.072,4.072h43.084   c2.248,0,4.072-1.823,4.072-4.072V25.227C75.15,22.978,73.326,21.155,71.078,21.155z M33.757,75.132h-4.932V70.2h4.932V75.132z    M33.757,66.074h-4.932v-4.932h4.932V66.074z M33.757,57.017h-4.932v-4.933h4.932V57.017z M33.757,47.959h-4.932v-4.933h4.932   V47.959z M33.757,38.902h-4.932v-4.933h4.932V38.902z M33.757,29.843h-4.932v-4.932h4.932V29.843z M70.449,75.132h-4.934V70.2   h4.934V75.132z M70.449,66.074h-4.934v-4.932h4.934V66.074z M70.449,57.017h-4.934v-4.933h4.934V57.017z M70.449,47.959h-4.934   v-4.933h4.934V47.959z M70.449,38.902h-4.934v-4.933h4.934V38.902z M70.449,29.843h-4.934v-4.932h4.934V29.843z"/></g><text x="0" y="115" fill="#000000" font-size="5px" font-weight="bold" font-family="'Helvetica Neue', Helvetica, Arial-Unicode, Arial, Sans-serif">Created by João Proença</text><text x="0" y="120" fill="#000000" font-size="5px" font-weight="bold" font-family="'Helvetica Neue', Helvetica, Arial-Unicode, Arial, Sans-serif">from the Noun Project</text></svg>