<svg xmlns="http://www.w3.org/2000/svg" xmlns:xlink="http://www.w3.org/1999/xlink" version="1.1" x="0px" y="0px" viewBox="-24.429 -31.458 100 125" enable-background="new -24.429 -31.458 100 100" xml:space="preserve"><g><path fill="none" d="M12.004-7.691c-14.462,0-26.229,11.769-26.229,26.233c0,14.466,11.766,26.233,26.229,26.233   c14.469,0,26.245-11.768,26.245-26.233C38.248,4.077,26.473-7.691,12.004-7.691z M-12.643,18.575c0-3.095,2.515-5.611,5.606-5.611   c3.095,0,5.612,2.519,5.612,5.611s-2.517,5.608-5.612,5.608C-10.128,24.185-12.643,21.668-12.643,18.575z M-1.6,37.347   c-3.091,0-5.606-2.517-5.606-5.609c0-3.095,2.515-5.609,5.606-5.609c3.095,0,5.611,2.515,5.611,5.609   C4.013,34.827,1.496,37.347-1.6,37.347z M-1.312,10.748c-3.091,0-5.608-2.518-5.608-5.61S-4.403-0.47-1.312-0.47   C1.783-0.47,4.3,2.047,4.3,5.138C4.302,8.23,1.785,10.748-1.312,10.748z M12.01,43.23c-3.093,0-5.608-2.518-5.608-5.61   s2.515-5.609,5.608-5.609c3.093,0,5.61,2.517,5.61,5.609C17.622,40.713,15.104,43.23,12.01,43.23z M7.738,18.819   c0-2.357,1.918-4.272,4.275-4.272c2.355,0,4.271,1.915,4.271,4.272c0,2.356-1.917,4.272-4.271,4.272   C9.656,23.092,7.738,21.176,7.738,18.819z M12.01,5.715c-3.093,0-5.608-2.517-5.608-5.608c0-3.094,2.515-5.611,5.608-5.611   c3.093,0,5.61,2.518,5.61,5.611C17.622,3.198,15.104,5.715,12.01,5.715z M24.999,37.633c-3.093,0-5.61-2.517-5.61-5.61   c0-3.093,2.517-5.607,5.61-5.607c3.093,0,5.609,2.515,5.609,5.607C30.61,35.116,28.094,37.633,24.999,37.633z M36.451,18.575   c0,3.093-2.518,5.608-5.611,5.608c-3.092,0-5.606-2.516-5.606-5.608c0-3.095,2.515-5.611,5.606-5.611   C33.934,12.964,36.451,15.48,36.451,18.575z M25.284,11.037c-3.091,0-5.606-2.517-5.606-5.609c0-3.094,2.515-5.61,5.606-5.61   c3.095,0,5.61,2.517,5.61,5.61C30.897,8.521,28.381,11.037,25.284,11.037z"/><circle fill="none" cx="12.012" cy="18.821" r="2.492"/><path fill="none" d="M40.414,23.036c2.09,12.048,12.42,21.305,24.951,21.724v-6.337C54.744,38.099,45.092,31.971,40.414,23.036z    M58.135,38.103c3.379,1.257,5.879,1.29,6.053,1.29c0.006,0,0.006,0,0.006,0l0.064,4.455c-0.016,0-0.035,0-0.066,0   c-0.482,0-2.846-0.059-6.055-1.02v-4.726H58.135z M51.823,35.362c1.711,1.132,3.271,1.728,4.717,2.207v4.62   c-1.4-0.532-3.17-1.72-4.717-2.647V35.362z M46.662,31.891c1.754,1.446,3.824,2.812,3.824,2.812v3.678   c-1.273-0.863-2.559-2.327-3.824-3.538C46.662,34.843,46.662,32.169,46.662,31.891z"/><path fill="#000000" d="M40,17.065l-0.045,0.011c-0.77-14.765-12.994-26.55-27.952-26.55c-15.444,0-28.011,12.568-28.011,28.016   S-3.44,46.558,12.004,46.558c13.075,0,24.051-9.007,27.135-21.13c3.08,12.125,14.053,21.13,27.117,21.13h0.893v-9.903h-0.893   C54.006,36.656,42.961,28.416,40,17.065z M12.004,44.775c-14.462,0-26.229-11.768-26.229-26.233   c0-14.465,11.766-26.233,26.229-26.233c14.469,0,26.245,11.769,26.245,26.233C38.248,33.008,26.473,44.775,12.004,44.775z    M65.365,44.762c-12.531-0.418-22.861-9.678-24.951-21.724c4.678,8.934,14.33,15.061,24.951,15.389V44.762z"/><path fill="#000000" d="M25.284-0.185c-3.091,0-5.606,2.517-5.606,5.61c0,3.093,2.515,5.609,5.606,5.609   c3.095,0,5.61-2.517,5.61-5.609C30.897,2.334,28.381-0.185,25.284-0.185z"/><path fill="#000000" d="M-1.423,18.575c0-3.095-2.517-5.611-5.611-5.611c-3.091,0-5.606,2.519-5.606,5.611s2.515,5.608,5.606,5.608   C-3.94,24.185-1.423,21.668-1.423,18.575z"/><path fill="#000000" d="M-1.6,26.124c-3.091,0-5.606,2.517-5.606,5.611c0,3.092,2.515,5.608,5.606,5.608   c3.095,0,5.611-2.517,5.611-5.608C4.013,28.641,1.496,26.124-1.6,26.124z"/><path fill="#000000" d="M-1.312-0.472c-3.091,0-5.608,2.517-5.608,5.608c0,3.094,2.517,5.609,5.608,5.609   c3.095,0,5.612-2.518,5.612-5.609C4.302,2.044,1.785-0.472-1.312-0.472z"/><path fill="#000000" d="M12.01,32.007c-3.093,0-5.608,2.518-5.608,5.611s2.515,5.608,5.608,5.608c3.093,0,5.61-2.515,5.61-5.608   C17.622,34.527,15.104,32.007,12.01,32.007z"/><path fill="#000000" d="M12.01-5.505c-3.093,0-5.608,2.518-5.608,5.611c0,3.092,2.515,5.608,5.608,5.608   c3.093,0,5.61-2.517,5.61-5.608C17.622-2.987,15.104-5.505,12.01-5.505z"/><path fill="#000000" d="M24.999,26.413c-3.093,0-5.61,2.515-5.61,5.607c0,3.096,2.517,5.61,5.61,5.61   c3.093,0,5.609-2.515,5.609-5.61C30.61,28.928,28.094,26.413,24.999,26.413z"/><path fill="#000000" d="M25.232,18.575c0,3.093,2.514,5.608,5.606,5.608c3.096,0,5.611-2.516,5.611-5.608   c0-3.095-2.516-5.611-5.611-5.611C27.746,12.964,25.232,15.48,25.232,18.575z"/><path fill="#000000" d="M12.012,23.092c2.355,0,4.271-1.916,4.271-4.272c0-2.357-1.917-4.272-4.271-4.272   c-2.357,0-4.275,1.915-4.275,4.272C7.738,21.176,9.656,23.092,12.012,23.092z M12.012,16.329c1.373,0,2.489,1.115,2.489,2.49   c0,1.374-1.118,2.49-2.489,2.49c-1.375,0-2.493-1.116-2.493-2.49C9.52,17.446,10.637,16.329,12.012,16.329z"/><path fill="#000000" d="M50.487,38.385v-3.68c0,0-2.07-1.364-3.826-2.812c0,0.278,0,2.951,0,2.951   C47.926,36.056,49.211,37.518,50.487,38.385z"/><path fill="#000000" d="M56.539,37.573c-1.445-0.483-3.008-1.077-4.717-2.209v4.18c1.547,0.93,3.316,2.116,4.717,2.647V37.573z"/><path fill="#000000" d="M64.258,43.848l-0.062-4.455c0,0-0.002,0-0.008,0c-0.174,0-2.672-0.033-6.053-1.29v4.724   c3.211,0.961,5.574,1.021,6.055,1.021C64.221,43.848,64.242,43.848,64.258,43.848z"/></g><text x="-24.429" y="83.542" fill="#000000" font-size="5px" font-weight="bold" font-family="'Helvetica Neue', Helvetica, Arial-Unicode, Arial, Sans-serif">Created by Josue Oquendo</text><text x="-24.429" y="88.542" fill="#000000" font-size="5px" font-weight="bold" font-family="'Helvetica Neue', Helvetica, Arial-Unicode, Arial, Sans-serif">from the Noun Project</text></svg>