<svg xmlns="http://www.w3.org/2000/svg" xmlns:xlink="http://www.w3.org/1999/xlink" version="1.1" x="0px" y="0px" viewBox="0 0 100 125" enable-background="new 0 0 100 100" xml:space="preserve"><path fill="#000000" d="M77.013,55.911c-1.706,1.216-2.569,2.812-3.198,3.979c-0.293,0.539-0.568,1.049-0.782,1.198  c-0.321,0.23-0.915-0.249-1.36-0.694c-0.57-0.57-1.162-1.344-1.733-2.093c-0.757-0.992-1.448-1.868-1.948-2.131  c-1.4-0.747-2.636-1.698-3.834-2.617c-0.803-0.617-1.562-1.2-2.242-1.62l-6.357-6.068L44.485,18.644l-0.151-0.293  c-1.572-3.078-3.199-6.26-5.676-8.738c-2.698-2.698-6.086-4.207-10.358-4.611c-0.166-0.015-0.327,0.056-0.426,0.19  c-0.099,0.132-0.122,0.307-0.06,0.462L42.75,42.697c0.024,0.059,0.06,0.113,0.105,0.158c-0.045-0.045-0.099-0.081-0.158-0.105  L5.654,27.813c-0.154-0.062-0.329-0.039-0.462,0.06c-0.134,0.099-0.205,0.26-0.19,0.426c0.405,4.272,1.913,7.66,4.611,10.358  c2.477,2.477,5.66,4.104,8.738,5.676l0.293,0.151l27.221,11.075l6.068,6.357c0.42,0.681,1.003,1.439,1.62,2.242  c0.919,1.198,1.87,2.434,2.617,3.834c0.263,0.5,1.138,1.192,2.131,1.948c0.749,0.571,1.523,1.163,2.093,1.733  c0.444,0.444,0.923,1.039,0.693,1.36c-0.15,0.214-0.659,0.489-1.198,0.782c-1.167,0.629-2.763,1.492-3.979,3.198  c-3.017,4.261-2.188,11.009,1.843,15.041c0.415,0.415,0.859,0.792,1.321,1.122c4.229,3.01,9.599,2.224,12.49-1.826  c2.433-3.422,2.433-7.886-0.003-12.249c-0.86-1.558-1.785-2.737-2.766-3.987c-0.335-0.426-0.678-0.864-1.028-1.329  c-1.301-1.713-2.537-2.974-3.626-4.084c-2.055-2.096-3.68-3.751-4.501-7.24c-0.438-1.935-1.591-3.933-2.024-4.686  c-0.039-0.068-0.071-0.123-0.094-0.164C57.501,57.533,57.46,57.46,57.4,57.4c0.061,0.061,0.133,0.101,0.211,0.123  c0.041,0.023,0.097,0.056,0.164,0.094c0.753,0.434,2.751,1.586,4.686,2.024c3.489,0.821,5.143,2.446,7.24,4.501  c1.11,1.089,2.371,2.325,4.084,3.626c0.465,0.35,0.903,0.694,1.329,1.028c1.249,0.98,2.429,1.906,3.987,2.766  c4.362,2.436,8.827,2.436,12.249,0.003c4.05-2.891,4.835-8.26,1.826-12.49c-0.329-0.462-0.706-0.906-1.122-1.321  C88.022,53.723,81.274,52.894,77.013,55.911z M68.018,88.607c-1.888,2.614-4.386,3.112-6.855,1.378  c-0.309-0.222-0.599-0.491-0.873-0.786c-0.079-0.085-0.151-0.18-0.227-0.271c-0.182-0.216-0.353-0.446-0.514-0.689  c-0.12-0.185-0.236-0.373-0.342-0.57c-0.069-0.124-0.131-0.252-0.194-0.379c-1.029-2.154-1.258-4.86,0.011-6.649  c0.857-1.213,2.104-2.062,3.336-2.271c0.977-0.165,1.897,0.053,2.735,0.65c0.277,0.198,0.557,0.437,0.83,0.709  C68.246,82.049,69.676,86.265,68.018,88.607z M65.678,78.271c0.011,0.008,0.023,0.011,0.034,0.019  c0.173,0.123,0.337,0.294,0.506,0.442C66.038,78.573,65.86,78.402,65.678,78.271z M54.259,54.259c-0.676,0.676-1.772,0.676-2.448,0  c-0.676-0.676-0.676-1.772,0-2.448c0.676-0.676,1.772-0.676,2.448,0C54.936,52.487,54.936,53.583,54.259,54.259z M78.731,66.218  c-0.148-0.169-0.319-0.333-0.442-0.506c-0.008-0.011-0.011-0.023-0.019-0.034C78.402,65.86,78.573,66.038,78.731,66.218z   M89.985,61.163c1.734,2.469,1.236,4.967-1.378,6.855c-2.342,1.658-6.558,0.228-8.879-2.093c-0.272-0.272-0.512-0.553-0.709-0.83  c-0.597-0.839-0.815-1.758-0.65-2.735c0.21-1.232,1.058-2.479,2.271-3.336c1.788-1.269,4.495-1.04,6.649-0.011  c0.128,0.063,0.256,0.125,0.379,0.194c0.198,0.107,0.386,0.223,0.57,0.342c0.243,0.161,0.473,0.332,0.689,0.514  c0.091,0.076,0.186,0.148,0.271,0.227C89.493,60.565,89.762,60.854,89.985,61.163z"/><text x="0" y="115" fill="#000000" font-size="5px" font-weight="bold" font-family="'Helvetica Neue', Helvetica, Arial-Unicode, Arial, Sans-serif">Created by Lorena Salagre</text><text x="0" y="120" fill="#000000" font-size="5px" font-weight="bold" font-family="'Helvetica Neue', Helvetica, Arial-Unicode, Arial, Sans-serif">from the Noun Project</text></svg>