<svg xmlns="http://www.w3.org/2000/svg" xmlns:xlink="http://www.w3.org/1999/xlink" version="1.1" x="0px" y="0px" viewBox="0 0 100 125" enable-background="new 0 0 100 100" xml:space="preserve"><path d="M82,64.279V53h-6.269c4.679-2,7.779-8.31,7.779-14.294c0-9.387-7.605-17.002-16.984-17.002  c-5.849,0-11.008,2.948-14.064,7.446C51.976,15.18,40.506,4,26.415,4C12.019,4,0.345,15.693,0.345,30.092  C0.345,39.963,5.831,47,13.925,53H6v42h76V83.387l17,8.684V73.836V55.6L82,64.279z M49.793,41.654  C50.619,46.406,53.419,51,57.317,53H38.907C43.603,51,47.419,46.462,49.793,41.654z"/><text x="0" y="115" fill="#000000" font-size="5px" font-weight="bold" font-family="'Helvetica Neue', Helvetica, Arial-Unicode, Arial, Sans-serif">Created by Luc Poupard</text><text x="0" y="120" fill="#000000" font-size="5px" font-weight="bold" font-family="'Helvetica Neue', Helvetica, Arial-Unicode, Arial, Sans-serif">from the Noun Project</text></svg>