<svg xmlns="http://www.w3.org/2000/svg" xmlns:xlink="http://www.w3.org/1999/xlink" version="1.1" x="0px" y="0px" viewBox="0 0 100 125" enable-background="new 0 0 100 100" xml:space="preserve"><g><path d="M50,5C34.1,5,21.2,17.9,21.2,33.8c0,4.9,1.2,9.5,3.3,13.5C30.7,59.1,44,77.3,50,95.4c5.9-18,19-36,25.3-47.8   c0,0,0-0.1,0-0.1c0-0.1,0.1-0.1,0.1-0.2c0.1-0.1,0.1-0.2,0.2-0.4c2-3.9,3.2-8.4,3.2-13.1C78.8,17.9,65.9,5,50,5z M50,43.8   c-5.5,0-10-4.5-10-10s4.5-10,10-10s10,4.5,10,10S55.5,43.8,50,43.8z"/></g><text x="0" y="115" fill="#000000" font-size="5px" font-weight="bold" font-family="'Helvetica Neue', Helvetica, Arial-Unicode, Arial, Sans-serif">Created by Calvin Goodman</text><text x="0" y="120" fill="#000000" font-size="5px" font-weight="bold" font-family="'Helvetica Neue', Helvetica, Arial-Unicode, Arial, Sans-serif">from the Noun Project</text></svg>