<svg xmlns="http://www.w3.org/2000/svg" xmlns:xlink="http://www.w3.org/1999/xlink" version="1.1" x="0px" y="0px" viewBox="0 0 100 125" enable-background="new 0 0 100 100" xml:space="preserve"><g><path fill="#000000" d="M85.3,90.3H16.3c-1.9,0-3.4-1.5-3.4-3.4V17.9c0-1.9,1.5-3.4,3.4-3.4h69.1c1.9,0,3.4,1.5,3.4,3.4V87   C88.7,88.8,87.2,90.3,85.3,90.3z M16.3,16.5c-0.8,0-1.4,0.6-1.4,1.4V87c0,0.8,0.6,1.4,1.4,1.4h69.1c0.8,0,1.4-0.6,1.4-1.4V17.9   c0-0.8-0.6-1.4-1.4-1.4H16.3z"/><rect x="13.9" y="31.9" fill="#000000" width="73.8" height="2"/><g><path fill="#000000" d="M23,22.5c-0.6,0-1-0.4-1-1V9.5c0-0.6,0.4-1,1-1s1,0.4,1,1v12.1C24,22.1,23.6,22.5,23,22.5z"/><path fill="#000000" d="M34.1,22.5c-0.6,0-1-0.4-1-1V9.5c0-0.6,0.4-1,1-1s1,0.4,1,1v12.1C35.1,22.1,34.7,22.5,34.1,22.5z"/><path fill="#000000" d="M45.2,22.5c-0.6,0-1-0.4-1-1V9.5c0-0.6,0.4-1,1-1s1,0.4,1,1v12.1C46.2,22.1,45.8,22.5,45.2,22.5z"/><path fill="#000000" d="M56.3,22.5c-0.6,0-1-0.4-1-1V9.5c0-0.6,0.4-1,1-1s1,0.4,1,1v12.1C57.3,22.1,56.9,22.5,56.3,22.5z"/><path fill="#000000" d="M67.4,22.5c-0.6,0-1-0.4-1-1V9.5c0-0.6,0.4-1,1-1s1,0.4,1,1v12.1C68.4,22.1,68,22.5,67.4,22.5z"/><path fill="#000000" d="M78.5,22.5c-0.6,0-1-0.4-1-1V9.5c0-0.6,0.4-1,1-1s1,0.4,1,1v12.1C79.5,22.1,79.1,22.5,78.5,22.5z"/></g><g><path fill="#000000" d="M30.6,68.3l3.8-0.5c0.4,2.2,1.2,3.7,2.3,4.7s2.4,1.4,3.9,1.4c1.8,0,3.3-0.6,4.6-1.9    c1.2-1.3,1.9-2.8,1.9-4.7c0-1.8-0.6-3.2-1.7-4.4c-1.2-1.1-2.6-1.7-4.4-1.7c-0.7,0-1.6,0.1-2.7,0.4l0.4-3.4c0.3,0,0.5,0,0.6,0    c1.6,0,3.1-0.4,4.4-1.3c1.3-0.9,2-2.2,2-3.9c0-1.4-0.5-2.6-1.4-3.5c-1-0.9-2.2-1.4-3.7-1.4c-1.5,0-2.7,0.5-3.7,1.4    c-1,0.9-1.6,2.3-1.9,4.2L31,53.3c0.5-2.6,1.5-4.6,3.2-6c1.7-1.4,3.7-2.1,6.2-2.1c1.7,0,3.3,0.4,4.7,1.1c1.4,0.7,2.5,1.7,3.3,3    c0.8,1.3,1.1,2.6,1.1,4c0,1.4-0.4,2.6-1.1,3.7s-1.8,2-3.2,2.6c1.8,0.4,3.3,1.3,4.3,2.7c1,1.3,1.5,3,1.5,5c0,2.7-1,5-3,6.9    s-4.5,2.8-7.6,2.8c-2.7,0-5-0.8-6.8-2.5S30.9,70.9,30.6,68.3z"/><path fill="#000000" d="M69.4,76.6h-3.8V52.1c-0.9,0.9-2.1,1.8-3.6,2.6c-1.5,0.9-2.8,1.5-4,2V53c2.1-1,4-2.2,5.6-3.7    c1.6-1.4,2.7-2.8,3.4-4.2h2.5V76.6z"/></g></g><text x="0" y="115" fill="#000000" font-size="5px" font-weight="bold" font-family="'Helvetica Neue', Helvetica, Arial-Unicode, Arial, Sans-serif">Created by Milky - Digital innovation</text><text x="0" y="120" fill="#000000" font-size="5px" font-weight="bold" font-family="'Helvetica Neue', Helvetica, Arial-Unicode, Arial, Sans-serif">from the Noun Project</text></svg>