<svg xmlns="http://www.w3.org/2000/svg" xmlns:xlink="http://www.w3.org/1999/xlink" version="1.1" x="0px" y="0px" viewBox="0 0 50 62.5" enable-background="new 0 0 50 50" xml:space="preserve"><path d="M41.75,5h-31c-0.554,0-1,0.447-1,1v6c0,0.553,0.446,1,1,1h2.451l9.239,14.466l0.31,0.735V44c0,0.13,0.025,0.26,0.076,0.382  c0.103,0.245,0.297,0.438,0.541,0.541C23.489,44.975,23.619,45,23.75,45c0.13,0,0.26-0.025,0.382-0.077  c0.123-0.051,0.233-0.124,0.326-0.217l4.998-4.998c0.093-0.092,0.166-0.203,0.217-0.326C29.724,39.26,29.75,39.13,29.75,39V28.27  L39.304,13h2.446c0.553,0,1-0.447,1-1V6C42.75,5.447,42.303,5,41.75,5z M28.465,26.498l-0.58,1C27.797,27.65,27.75,27.824,27.75,28  v10.586l-3,3V28c0-0.133-0.026-0.266-0.078-0.387l-0.42-1c-0.021-0.053-0.05-0.104-0.079-0.151L20.046,20h12.5L28.465,26.498z   M33.174,19H19.406l-3.832-6H36.94L33.174,19z M40.75,11h-2h-25h-2V7h29V11z"/><text x="0" y="65" fill="#000000" font-size="5px" font-weight="bold" font-family="'Helvetica Neue', Helvetica, Arial-Unicode, Arial, Sans-serif">Created by Luboš Volkov</text><text x="0" y="70" fill="#000000" font-size="5px" font-weight="bold" font-family="'Helvetica Neue', Helvetica, Arial-Unicode, Arial, Sans-serif">from the Noun Project</text></svg>