<svg xmlns="http://www.w3.org/2000/svg" xmlns:xlink="http://www.w3.org/1999/xlink" version="1.1" x="0px" y="0px" viewBox="0 0 48 60" enable-background="new 0 0 48 48" xml:space="preserve"><g><path fill="#000000" d="M37.1,48c-6,0-10.9-4.7-10.9-10.4c0-2.8,1.2-5.5,3.3-7.4v-23c0-4,3.4-7.2,7.6-7.2c4.2,0,7.6,3.2,7.6,7.2   v23.1c2.1,2,3.3,4.6,3.3,7.4C48,43.4,43.1,48,37.1,48z M37.1,2c-3,0-5.6,2.4-5.6,5.2v23.9l-0.3,0.3c-1.9,1.6-3,3.8-3,6.2   c0,4.6,4,8.4,8.9,8.4s8.9-3.7,8.9-8.3c0-2.4-1-4.6-3-6.2l-0.3-0.3v-24C42.7,4.4,40.1,2,37.1,2z"/><path fill="#000000" d="M37.1,43.5c-3.1,0-5.7-2.4-5.7-5.4s2.6-5.4,5.7-5.4c3.1,0,5.7,2.4,5.7,5.4S40.2,43.5,37.1,43.5z M37.1,34.7   c-2,0-3.7,1.5-3.7,3.4c0,1.9,1.7,3.4,3.7,3.4s3.7-1.5,3.7-3.4C40.8,36.2,39.1,34.7,37.1,34.7z"/><rect x="36.1" y="7.1" fill="#000000" width="2" height="25.7"/><g><path fill="#000000" d="M29.7,29.2h-20c-5.3,0-9.8-3.7-9.8-8c0-4.5,4.3-8,9.8-8c0.6,0,1.2,0,1.8,0.1c-0.2-0.6-0.3-1.3-0.3-2    c0-5.4,5.4-9.6,12.3-9.6c2.4,0,4.6,0.5,6.6,1.5L31.5,4l-1,1.7L29.2,5c-1.6-0.8-3.6-1.3-5.7-1.3c-5.8,0-10.3,3.3-10.3,7.6    c0,1,0.3,2.1,0.8,2.9l1.3,2.1l-2.4-0.7c-1.2-0.3-2.2-0.5-3.1-0.5c-4.3,0-7.8,2.7-7.8,6c0,3.3,3.6,6,7.8,6h20V29.2z"/></g></g><text x="0" y="63" fill="#000000" font-size="5px" font-weight="bold" font-family="'Helvetica Neue', Helvetica, Arial-Unicode, Arial, Sans-serif">Created by Creative Stall</text><text x="0" y="68" fill="#000000" font-size="5px" font-weight="bold" font-family="'Helvetica Neue', Helvetica, Arial-Unicode, Arial, Sans-serif">from the Noun Project</text></svg>