<svg xmlns="http://www.w3.org/2000/svg" xmlns:xlink="http://www.w3.org/1999/xlink" version="1.1" x="0px" y="0px" viewBox="0 0 100 125" enable-background="new 0 0 100 100" xml:space="preserve"><g><g><path fill-rule="evenodd" clip-rule="evenodd" d="M3.476,46.571c0-0.725,0-1.45,0-2.175c0.039-0.078,0.075-0.156,0.116-0.232    c0.712-1.31,1.728-2.148,3.299-2.134c1.867,0.018,3.734,0.017,5.601,0.025c5.152,0.024,10.305,0.015,15.458,0.019    c2.67,0.002,5.341,0.007,8.012,0.011c0.351,0,0.68,0.005,0.897,0.374c0.156,0.264,0.188,0.243,0.421,0.028    c1.146-1.055,2.154-2.235,3.096-3.47c3.743-4.904,6.824-10.21,9.537-15.74c0.214-0.436,0.317-0.861,0.293-1.353    c-0.056-1.188-0.026-2.378-0.049-3.568c-0.053-2.733-0.072-5.466-0.11-8.2c-0.002-0.198,0.049-0.365,0.161-0.528    c1.217-1.785,2.892-2.884,4.994-3.354c0.578-0.129,1.168-0.163,1.754-0.226c0.236,0,0.473,0,0.709,0    c0.321,0.028,0.643,0.049,0.963,0.086c1.43,0.17,2.798,0.541,4.057,1.261c0.433,0.248,0.772,0.58,1.028,1.017    c1.555,2.662,2.854,5.441,3.853,8.358c0.896,2.62,1.481,5.287,1.281,8.089c-0.115,1.606-0.294,3.199-0.601,4.778    c-0.397,2.043-0.962,4.046-1.45,6.067c-0.108,0.449-0.107,0.449,0.354,0.449c7.771,0,15.54,0.004,23.311-0.004    c1.143-0.001,2.197,0.281,3.178,0.852c3.183,1.856,4.606,5.898,3.331,9.418c-0.602,1.658-1.638,3.006-2.932,4.173    c-0.159,0.144-0.178,0.247-0.076,0.436c0.721,1.345,0.957,2.778,0.708,4.28c-0.349,2.097-1.404,3.809-2.945,5.235    c-0.231,0.214-0.284,0.388-0.193,0.688c0.427,1.411,0.592,2.85,0.356,4.318c-0.326,2.036-1.293,3.716-2.831,5.073    c-0.157,0.14-0.195,0.261-0.144,0.468c0.512,2.044,0.505,4.074-0.242,6.066c-0.792,2.112-2.194,3.737-4.079,4.945    c-1.567,1.004-3.263,1.644-5.153,1.644c-11.883,0.002-23.767,0.001-35.65,0.003c-0.413,0-0.818-0.052-1.212-0.171    c-1.43-0.432-2.624-1.243-3.665-2.298c-0.067-0.068-0.119-0.16-0.297-0.219c0,0.606,0.008,1.173-0.002,1.738    c-0.008,0.425-0.003,0.855-0.069,1.272c-0.199,1.25-1.471,2.272-2.798,2.272c-8.771,0.002-17.542,0.001-26.313,0    c-0.126,0-0.253-0.004-0.377-0.022c-1.267-0.193-2.499-1.441-2.699-2.779c-0.092-0.613-0.111-1.238-0.16-1.858    c-0.107-1.365-0.212-2.731-0.317-4.098c-0.085-1.1-0.167-2.198-0.252-3.298c-0.104-1.351-0.21-2.7-0.314-4.051    c-0.085-1.106-0.167-2.214-0.252-3.321c-0.104-1.351-0.211-2.7-0.315-4.051c-0.085-1.106-0.166-2.214-0.251-3.321    c-0.104-1.343-0.211-2.685-0.314-4.027c-0.086-1.122-0.167-2.245-0.252-3.368c-0.105-1.382-0.212-2.764-0.321-4.145    C3.567,47.526,3.52,47.049,3.476,46.571z M62.121,79.985c0,0.005,0,0.01,0,0.015c5.863,0,11.726-0.003,17.589,0.006    c0.487,0,0.935-0.102,1.364-0.317c1.422-0.713,2.604-1.709,3.532-3c0.547-0.76,0.934-1.595,0.983-2.546    c0.064-1.252-0.488-2.237-1.391-3.052c-0.471-0.426-0.589-0.97-0.308-1.53c0.102-0.201,0.243-0.342,0.472-0.392    c0.248-0.054,0.482-0.147,0.705-0.27c1.45-0.792,2.42-2.006,2.986-3.531c0.647-1.745,0.245-3.218-1.142-4.462    c-0.61-0.548-0.429-1.518,0.347-1.865c0.969-0.435,1.827-1.027,2.524-1.834c0.982-1.137,1.409-2.454,1.148-3.945    c-0.185-1.061-0.636-2.005-1.429-2.763c-0.487-0.466-0.316-1.354,0.303-1.534c0.515-0.149,0.979-0.392,1.427-0.673    c1.814-1.138,2.791-3.206,2.443-5.233c-0.353-2.053-1.951-3.199-3.61-3.222c-3.647-0.051-7.296-0.016-10.944-0.017    c-5.485-0.001-10.97-0.002-16.454-0.005c-0.301,0-0.313-0.019-0.249-0.313c0.007-0.031,0.013-0.062,0.02-0.092    c0.861-3.828,1.676-7.665,2.189-11.558c0.18-1.36,0.29-2.726,0.345-4.095c0.049-1.193-0.195-2.351-0.492-3.497    c-0.842-3.247-2.103-6.337-3.522-9.366c-0.063-0.135-0.157-0.23-0.28-0.31c-1.038-0.674-2.172-0.969-3.41-0.897    c-1.033,0.06-1.975,0.36-2.84,0.93c-0.258,0.17-0.361,0.359-0.36,0.674c0.011,3.924,0.006,7.849,0.008,11.773    c0,0.208-0.024,0.401-0.123,0.592c-1.229,2.38-2.499,4.74-3.84,7.06c-2.77,4.789-5.816,9.39-9.264,13.721    c-0.15,0.188-0.325,0.34-0.521,0.475c-1.437,0.984-2.866,1.978-4.312,2.949c-0.275,0.185-0.377,0.379-0.376,0.71    c0.009,9.377,0.007,18.755,0.008,28.132c0,0.079,0.003,0.158,0,0.236c-0.006,0.161,0.076,0.227,0.23,0.228    c0.74,0.008,1.484,0.064,2.22,0.014c0.644-0.045,1.187,0.08,1.735,0.432c1.133,0.727,2.306,1.395,3.498,2.022    c0.259,0.137,0.524,0.254,0.826,0.262c0.488,0.013,0.976,0.038,1.464,0.044c1.93,0.024,3.861,0.027,5.791,0.04    C54.981,80.002,58.552,79.985,62.121,79.985z M25.507,79.479c1.436,0.003,2.59-1.143,2.597-2.574    c0.006-1.43-1.153-2.604-2.573-2.608c-1.435-0.004-2.609,1.163-2.612,2.597C22.917,78.316,24.077,79.476,25.507,79.479z"/><path fill-rule="evenodd" clip-rule="evenodd" fill="none" d="M56.956,6.047C56.37,6.11,55.78,6.144,55.202,6.273    c-2.102,0.47-3.776,1.569-4.994,3.354c-0.112,0.164-0.163,0.33-0.161,0.528c0.038,2.733,0.057,5.467,0.11,8.2    c0.023,1.189-0.007,2.38,0.049,3.568c0.023,0.492-0.08,0.917-0.293,1.353c-2.713,5.53-5.794,10.836-9.537,15.74    c-0.942,1.235-1.951,2.415-3.096,3.47c-0.234,0.215-0.266,0.236-0.421-0.028c-0.217-0.368-0.547-0.374-0.897-0.374    c-2.671-0.003-5.342-0.008-8.012-0.011c-5.153-0.004-10.306,0.005-15.458-0.019c-1.867-0.009-3.734-0.008-5.601-0.025    c-1.571-0.014-2.586,0.825-3.299,2.134c-0.041,0.076-0.077,0.155-0.116,0.232c0-12.712,0-25.424-0.004-38.136    c0-0.177,0.04-0.217,0.217-0.217C21.444,6.047,39.2,6.047,56.956,6.047z"/><path fill-rule="evenodd" clip-rule="evenodd" fill="none" d="M3.476,46.571c0.043,0.478,0.091,0.955,0.129,1.434    c0.109,1.381,0.215,2.763,0.321,4.145c0.085,1.123,0.166,2.246,0.252,3.368c0.103,1.343,0.211,2.685,0.314,4.027    c0.085,1.107,0.167,2.215,0.251,3.321c0.104,1.351,0.211,2.7,0.315,4.051c0.085,1.107,0.167,2.215,0.252,3.321    c0.104,1.351,0.21,2.7,0.314,4.051c0.085,1.1,0.167,2.198,0.252,3.298c0.105,1.366,0.21,2.732,0.317,4.098    c0.049,0.62,0.068,1.245,0.16,1.858c0.2,1.338,1.432,2.586,2.699,2.779c0.124,0.019,0.251,0.022,0.377,0.022    c8.771,0.001,17.542,0.002,26.313,0c1.328,0,2.599-1.022,2.798-2.272c0.066-0.417,0.061-0.848,0.069-1.272    c0.011-0.565,0.002-1.132,0.002-1.738c0.178,0.059,0.23,0.15,0.297,0.219c1.041,1.055,2.235,1.866,3.665,2.298    c0.394,0.119,0.799,0.171,1.212,0.171c11.884-0.002,23.768-0.001,35.65-0.003c1.891,0,3.586-0.64,5.153-1.644    c1.885-1.208,3.287-2.833,4.079-4.945c0.747-1.992,0.754-4.022,0.242-6.066c-0.052-0.207-0.014-0.328,0.144-0.468    c1.538-1.357,2.505-3.037,2.831-5.073c0.235-1.469,0.07-2.907-0.356-4.318c-0.091-0.3-0.038-0.474,0.193-0.688    c1.541-1.427,2.597-3.139,2.945-5.235c0.249-1.502,0.013-2.936-0.708-4.28c-0.102-0.189-0.083-0.292,0.076-0.436    c1.294-1.167,2.33-2.516,2.932-4.173c1.275-3.52-0.148-7.563-3.331-9.418c-0.98-0.571-2.035-0.853-3.178-0.852    c-7.771,0.008-15.54,0.004-23.311,0.004c-0.462,0-0.463,0-0.354-0.449c0.488-2.021,1.053-4.024,1.45-6.067    c0.307-1.579,0.485-3.172,0.601-4.778c0.2-2.802-0.385-5.469-1.281-8.089c-0.999-2.917-2.298-5.696-3.853-8.358    c-0.256-0.437-0.596-0.769-1.028-1.017c-1.259-0.72-2.627-1.091-4.057-1.261c-0.32-0.038-0.642-0.058-0.963-0.086    c13.405,0,26.811,0,40.217-0.004c0.177,0,0.217,0.04,0.217,0.217c-0.005,26.858-0.005,53.716,0,80.575    c0,0.177-0.04,0.217-0.217,0.217c-31.398-0.005-62.795-0.005-94.193,0c-0.177,0-0.217-0.04-0.217-0.217    C3.477,73.413,3.476,59.992,3.476,46.571z"/><path fill-rule="evenodd" clip-rule="evenodd" fill="none" d="M62.121,79.985c-3.569,0-7.14,0.017-10.709-0.008    c-1.93-0.013-3.861-0.016-5.791-0.04c-0.488-0.006-0.976-0.031-1.464-0.044c-0.302-0.008-0.567-0.125-0.826-0.262    c-1.192-0.628-2.365-1.296-3.498-2.022c-0.548-0.352-1.091-0.477-1.735-0.432c-0.736,0.051-1.479-0.006-2.22-0.014    c-0.155-0.001-0.237-0.066-0.23-0.228c0.003-0.078,0-0.157,0-0.236c0-9.377,0.001-18.755-0.008-28.132    c0-0.331,0.102-0.525,0.376-0.71c1.445-0.971,2.875-1.965,4.312-2.949c0.196-0.135,0.371-0.286,0.521-0.475    c3.448-4.331,6.495-8.932,9.264-13.721c1.341-2.32,2.61-4.679,3.84-7.06c0.099-0.191,0.123-0.384,0.123-0.592    c-0.002-3.925,0.003-7.849-0.008-11.773c-0.001-0.315,0.103-0.504,0.36-0.674c0.865-0.569,1.807-0.87,2.84-0.93    c1.238-0.071,2.372,0.223,3.41,0.897c0.123,0.08,0.218,0.175,0.28,0.31c1.42,3.029,2.681,6.12,3.522,9.366    c0.297,1.146,0.541,2.304,0.492,3.497c-0.055,1.37-0.165,2.735-0.345,4.095c-0.514,3.894-1.328,7.73-2.189,11.558    c-0.007,0.031-0.013,0.062-0.02,0.092c-0.063,0.294-0.052,0.313,0.249,0.313c5.484,0.002,10.969,0.004,16.454,0.005    c3.648,0.001,7.297-0.034,10.944,0.017c1.659,0.023,3.258,1.169,3.61,3.222c0.348,2.027-0.629,4.096-2.443,5.233    c-0.448,0.281-0.912,0.524-1.427,0.673c-0.619,0.18-0.79,1.068-0.303,1.534c0.793,0.758,1.244,1.703,1.429,2.763    c0.261,1.491-0.166,2.809-1.148,3.945c-0.697,0.807-1.556,1.399-2.524,1.834c-0.775,0.348-0.957,1.317-0.347,1.865    c1.387,1.244,1.789,2.717,1.142,4.462c-0.566,1.525-1.536,2.739-2.986,3.531c-0.223,0.122-0.457,0.216-0.705,0.27    c-0.229,0.05-0.37,0.19-0.472,0.392c-0.281,0.561-0.163,1.104,0.308,1.53c0.902,0.814,1.455,1.8,1.391,3.052    c-0.05,0.951-0.437,1.786-0.983,2.546c-0.928,1.291-2.11,2.287-3.532,3c-0.43,0.216-0.877,0.317-1.364,0.317    C73.847,79.997,67.984,80,62.121,80C62.121,79.995,62.121,79.99,62.121,79.985z"/><path fill-rule="evenodd" clip-rule="evenodd" fill="none" d="M25.507,79.479c-1.43-0.003-2.59-1.162-2.588-2.586    c0.003-1.434,1.177-2.601,2.612-2.597c1.42,0.004,2.58,1.179,2.573,2.608C28.098,78.336,26.943,79.481,25.507,79.479z     M24.949,77.849c0.196-0.003,0.34-0.149,0.339-0.345c0-0.188-0.156-0.347-0.342-0.35c-0.195-0.002-0.355,0.164-0.349,0.365    C24.604,77.717,24.749,77.853,24.949,77.849z M26.069,76.706c0.188,0.002,0.347-0.149,0.353-0.336    c0.006-0.196-0.157-0.358-0.356-0.355c-0.195,0.004-0.336,0.149-0.335,0.347C25.731,76.556,25.876,76.704,26.069,76.706z     M26.073,77.849c0.194,0.001,0.346-0.146,0.349-0.336c0.004-0.193-0.168-0.364-0.359-0.358c-0.186,0.006-0.333,0.165-0.332,0.356    C25.732,77.711,25.872,77.849,26.073,77.849z M25.288,76.359c0-0.188-0.151-0.341-0.341-0.344    c-0.192-0.003-0.344,0.142-0.35,0.333c-0.006,0.201,0.151,0.36,0.35,0.357C25.136,76.702,25.288,76.548,25.288,76.359z"/><path fill-rule="evenodd" clip-rule="evenodd" d="M24.949,77.849c-0.2,0.004-0.345-0.132-0.351-0.329    c-0.006-0.201,0.153-0.367,0.349-0.365c0.186,0.003,0.341,0.161,0.342,0.35C25.289,77.699,25.145,77.846,24.949,77.849z"/><path fill-rule="evenodd" clip-rule="evenodd" d="M26.069,76.706c-0.193-0.002-0.338-0.15-0.338-0.345    c-0.001-0.197,0.14-0.343,0.335-0.347c0.199-0.003,0.362,0.159,0.356,0.355C26.417,76.557,26.257,76.708,26.069,76.706z"/><path fill-rule="evenodd" clip-rule="evenodd" d="M26.073,77.849c-0.201,0-0.34-0.138-0.342-0.338    c-0.001-0.191,0.146-0.351,0.332-0.356c0.191-0.006,0.363,0.165,0.359,0.358C26.418,77.703,26.267,77.85,26.073,77.849z"/><path fill-rule="evenodd" clip-rule="evenodd" d="M25.288,76.359c0,0.188-0.152,0.343-0.34,0.347    c-0.199,0.003-0.356-0.156-0.35-0.357c0.006-0.191,0.158-0.336,0.35-0.333C25.137,76.019,25.288,76.171,25.288,76.359z"/></g></g><text x="0" y="115" fill="#000000" font-size="5px" font-weight="bold" font-family="'Helvetica Neue', Helvetica, Arial-Unicode, Arial, Sans-serif">Created by Rhys de Dezsery</text><text x="0" y="120" fill="#000000" font-size="5px" font-weight="bold" font-family="'Helvetica Neue', Helvetica, Arial-Unicode, Arial, Sans-serif">from the Noun Project</text></svg>