<?xml version="1.0" encoding="utf-8"?>
<!-- Generator: Adobe Illustrator 22.1.0, SVG Export Plug-In . SVG Version: 6.00 Build 0)  -->
<svg version="1.1" id="Capa_1" xmlns="http://www.w3.org/2000/svg" xmlns:xlink="http://www.w3.org/1999/xlink" x="0px" y="0px"
	 viewBox="0 0 489 536" style="enable-background:new 0 0 489 536;" xml:space="preserve">
<style type="text/css">
	.st0{fill:#F6F59C;}
</style>
<g>
	<circle class="st0" cx="305.4" cy="218.3" r="12.3"/>
	<circle class="st0" cx="342.2" cy="451.8" r="15.9"/>
	<circle class="st0" cx="310.4" cy="489.2" r="15.9"/>
	<circle class="st0" cx="265.3" cy="511.1" r="15.9"/>
	<circle class="st0" cx="177.7" cy="218.3" r="12.3"/>
	<path class="st0" d="M237.8,346.6h-10.1v20h-6.9v-20h-13.9v20H200v-20h-13.9v20h-6.9v-20c0,0-16.3,5.2-16.9,27.1v3.9
		c0.6,21.9,16.9,27.1,16.9,27.1v-20h6.9v18.7v1.3H200v-1.3v-18.7h6.9v18.7v1.3h13.9v-1.3v-18.7h6.9v18.7v1.3h10.1v-20h3.8v-1.9v-1.9
		v-1.3v-9v-1.9v-1.9h-3.8V346.6z"/>
	<path class="st0" d="M241.6,420.4c0,0-48.6,2.6-74.8-14.2c0,0,3.9,67.1,74.8,69.7c70.9-2.6,74.8-69.7,74.8-69.7
		C290.2,422.9,241.6,420.4,241.6,420.4z"/>
	<path class="st0" d="M367.6,96.2h-126h-126c-5,0-9,4-9,9c0,3.3,2.7,6,6,6h129h129c3.3,0,6-2.7,6-6
		C376.6,100.2,372.5,96.2,367.6,96.2z"/>
	<path class="st0" d="M345.6,72.1H241.7h-0.3H137.5c-5,0-9,4-9,9v0c0,3.3,2.7,6,6,6h106.9h0.3h106.9c3.3,0,6-2.7,6-6v0
		C354.7,76.1,350.6,72.1,345.6,72.1z"/>
	<path class="st0" d="M260.3,1.4h-18.7h-18.7c-5,0-9,4-9,9c0,3.3,2.7,6,6,6h21.7h21.7c3.3,0,6-2.7,6-6
		C269.3,5.4,265.3,1.4,260.3,1.4z"/>
	<path class="st0" d="M292.3,22h-50.6h-0.3h-50.6c-5,0-9,4-9,9c0,3.3,2.7,6,6,6h53.6h0.3h53.6c3.3,0,6-2.7,6-6
		C301.3,26,297.3,22,292.3,22z"/>
	<path class="st0" d="M325.4,44.6h-83.7h-0.3h-83.7c-5,0-9,4-9,9c0,3.3,2.7,6,6,6h86.7h0.3h86.7c3.3,0,6-2.7,6-6
		C334.4,48.6,330.4,44.6,325.4,44.6z"/>
	<circle class="st0" cx="141" cy="451.8" r="15.9"/>
	<circle class="st0" cx="172.8" cy="489.2" r="15.9"/>
	<circle class="st0" cx="217.8" cy="511.1" r="15.9"/>
	<path class="st0" d="M304,346.6v20H297v-20h-13.9v20h-6.9v-20h-13.9v20h-6.9v-20H245v20h-3.5v1.9v1.9v9v1.3v1.9v1.9h3.5v20h10.4
		v-1.3v-18.7h6.9v18.7v1.3h13.9v-1.3v-18.7h6.9v18.7v1.3H297v-1.3v-18.7h6.9v20c0,0,16.3-5.2,16.9-27.1v-3.9
		C320.3,351.8,304,346.6,304,346.6z"/>
	<path class="st0" d="M478.2,201.3c-5.1-14-18.2-27.2-31.2-34.3c-25.7-13.9-50-2.2-68.1,17.7v-62.6H241.6H104.2v62.6
		c-18.1-19.9-42.4-31.6-68.1-17.7c-13,7-26.1,20.3-31.2,34.3c-10.5,29.1,6.1,68.3,38,74.7c21.6,4.3,53.6-8.5,60.4-31.2
		c4-13.4-2.4-29-13.1-37.6c-9.8-7.8-30.3-10.4-40.5-2c-10.3,8.6-10.1,24.6-10.1,24.6c0.1,9.5,9.7,19.2,19.3,18.6
		c8.8-0.5,17.4-7.9,17.4-17c0-5.9-4.8-10.6-10.6-10.6c-5.9,0-10.6,4.8-10.6,10.6c0,4.7,3,8.6,7.2,10.1c-14.3-0.5-14.3-13-14.3-13
		c1.3-22.6,18.1-16.8,18.1-16.8c25.2-1.3,21.3,23.9,21.3,23.9c-2.6,28.4-31.6,26.1-31.6,26.1c-14.3,0-29.9-6.3-32.6-21.7
		c-2-11.7,2.1-24.8,8.5-34.5c10.5-15.9,26.7-17.1,26.7-17.1c60,0.6,60.6,49.7,60.6,49.7c-1.3,38.7-42.6,42.6-42.6,42.6
		s74.8,82.5,74.8,82.6c-1.2-1.3,6.9-9.9,7.9-10.8c3.6-3.4,7.8-6,12.1-8.3c10-5.1,20.4-7.4,31.4-9c24.7-3.6,49.9-5.2,74.6-1
		c21,3.6,40.6,12.6,54.5,29.1l74.8-82.6c0,0-41.3-3.9-42.6-42.6c0,0,0.6-49,60.6-49.7c0,0,16.2,1.2,26.7,17.1
		c6.4,9.6,10.5,22.8,8.5,34.5c-2.7,15.4-18.3,21.7-32.6,21.7c0,0-29,2.3-31.6-26.1c0,0-3.9-25.2,21.3-23.9c0,0,16.8-5.8,18.1,16.8
		c0,0,0,12.4-14.3,13c4.2-1.4,7.2-5.4,7.2-10.1c0-5.9-4.8-10.6-10.6-10.6c-5.9,0-10.6,4.8-10.6,10.6c0,9.1,8.7,16.5,17.4,17
		c9.6,0.5,19.2-9.1,19.3-18.6c0,0,0.3-16-10.1-24.6c-10.2-8.5-30.8-5.8-40.5,2c-10.7,8.5-17.1,24.1-13.1,37.6
		c6.8,22.6,38.9,35.5,60.4,31.2C472.2,269.7,488.8,230.4,478.2,201.3z M177.7,241.5c-12.8,0-23.2-10.4-23.2-23.2
		s10.4-23.2,23.2-23.2c12.8,0,23.2,10.4,23.2,23.2S190.5,241.5,177.7,241.5z M215.3,321.5L241.6,208l25.8,113.5H215.3z M305.4,241.5
		c-12.8,0-23.2-10.4-23.2-23.2s10.4-23.2,23.2-23.2s23.2,10.4,23.2,23.2S318.2,241.5,305.4,241.5z M364.1,187.3
		c-52.9-60.6-122.5,7.7-122.5,7.7s-69.7-68.4-122.5-7.7v-33.5c0,0,46.4-41.9,122.5,5.2c76.1-47.1,122.5-5.2,122.5-5.2V187.3z"/>
</g>
</svg>
