<?xml version="1.0" encoding="utf-8"?>
<!-- Generator: Adobe Illustrator 22.1.0, SVG Export Plug-In . SVG Version: 6.00 Build 0)  -->
<svg version="1.1" id="Capa_1" xmlns="http://www.w3.org/2000/svg" xmlns:xlink="http://www.w3.org/1999/xlink" x="0px" y="0px"
	 viewBox="0 0 494 461" style="enable-background:new 0 0 494 461;" xml:space="preserve">
<style type="text/css">
	.st0{fill:#DC5342;}
</style>
<g>
	<g>
		<path class="st0" d="M181.1,198.8c27.2,0,49.2-22,49.2-49.2s-22-49.2-49.2-49.2c-27.2,0-49.2,22-49.2,49.2S154,198.8,181.1,198.8z
			 M204.6,126.9c4.6,0,8.3,3.7,8.3,8.3s-3.7,8.3-8.3,8.3c-4.6,0-8.3-3.7-8.3-8.3S200,126.9,204.6,126.9z M204.6,156
			c4.6,0,8.3,3.7,8.3,8.3s-3.7,8.3-8.3,8.3c-4.6,0-8.3-3.7-8.3-8.3S200,156,204.6,156z M176.1,109.7c4.6,0,8.3,3.7,8.3,8.3
			c0,4.6-3.7,8.3-8.3,8.3c-4.6,0-8.3-3.7-8.3-8.3C167.8,113.4,171.5,109.7,176.1,109.7z M176.1,170.7c4.6,0,8.3,3.7,8.3,8.3
			c0,4.6-3.7,8.3-8.3,8.3c-4.6,0-8.3-3.7-8.3-8.3C167.8,174.4,171.5,170.7,176.1,170.7z M152.3,126.9c4.6,0,8.3,3.7,8.3,8.3
			s-3.7,8.3-8.3,8.3c-4.6,0-8.3-3.7-8.3-8.3S147.7,126.9,152.3,126.9z M152.3,156c4.6,0,8.3,3.7,8.3,8.3s-3.7,8.3-8.3,8.3
			c-4.6,0-8.3-3.7-8.3-8.3S147.7,156,152.3,156z"/>
		<path class="st0" d="M242.2,1c-4.9,0-74.6,0.8-97.5,84.8c0,0,65.4-22.3,97.2,31.3v0.9c0.1-0.2,0.2-0.3,0.3-0.5
			c0.1,0.2,0.2,0.3,0.3,0.5V117c31.9-53.6,97.2-31.3,97.2-31.3C316.8,1.8,247.1,0.9,242.2,1z"/>
		<path class="st0" d="M303.2,100.4c-27.2,0-49.2,22-49.2,49.2s22,49.2,49.2,49.2c27.2,0,49.2-22,49.2-49.2S330.4,100.4,303.2,100.4
			z M279.8,172.6c-4.6,0-8.3-3.7-8.3-8.3s3.7-8.3,8.3-8.3c4.6,0,8.3,3.7,8.3,8.3S284.4,172.6,279.8,172.6z M279.8,143.5
			c-4.6,0-8.3-3.7-8.3-8.3s3.7-8.3,8.3-8.3c4.6,0,8.3,3.7,8.3,8.3S284.4,143.5,279.8,143.5z M308.3,187.3c-4.6,0-8.3-3.7-8.3-8.3
			c0-4.6,3.7-8.3,8.3-8.3c4.6,0,8.3,3.7,8.3,8.3C316.6,183.6,312.9,187.3,308.3,187.3z M308.3,126.3c-4.6,0-8.3-3.7-8.3-8.3
			c0-4.6,3.7-8.3,8.3-8.3c4.6,0,8.3,3.7,8.3,8.3C316.6,122.6,312.9,126.3,308.3,126.3z M332.1,172.6c-4.6,0-8.3-3.7-8.3-8.3
			s3.7-8.3,8.3-8.3c4.6,0,8.3,3.7,8.3,8.3S336.6,172.6,332.1,172.6z M332.1,143.5c-4.6,0-8.3-3.7-8.3-8.3s3.7-8.3,8.3-8.3
			c4.6,0,8.3,3.7,8.3,8.3S336.6,143.5,332.1,143.5z"/>
		<path class="st0" d="M484.4,129.3l-28.8,14.2l-6.2-33.9l-16.4,29.2h-27.1l12.4,33.7l-25.4,41.9l-41.3-15.7
			c-65.7,40-104.1-8.1-109.1-15l0-0.8c0,0-0.1,0.1-0.3,0.4c-0.2-0.3-0.3-0.4-0.3-0.4l0,0.8c-5,6.9-43.3,55-109.1,15l-41.3,15.7
			l-25.4-41.9l12.4-33.7H51.4L35,109.7l-6.2,33.9L0,129.3l7.3,32.8L0,182.4l32.8,1.7l47.5,84.2l47.5-29.4c0,0,9,75.5,113.6,78l0,0
			c0.3,0,0.6,0,0.8,0c0.3,0,0.6,0,0.8,0l0,0c104.6-2.5,113.6-78,113.6-78l47.5,29.4l47.5-84.2l32.8-1.7l-7.3-20.3L484.4,129.3z
			 M226.6,302.8l-15.8-12.4l15.8-12.4V302.8z M226.6,274l-15.8-12.4l15.8-12.4V274z M226.6,245.1l-15.8-12.4l15.8-12.4V245.1z
			 M257.7,302.8v-24.9l15.8,12.4L257.7,302.8z M257.7,274v-24.9l15.8,12.4L257.7,274z M257.7,245.1v-24.9l15.8,12.4L257.7,245.1z"/>
		<polygon class="st0" points="242.2,335 44.9,277.9 132,403.4 107.7,435 129.7,454.8 176.1,397.7 120.7,330.2 242.2,375.1 
			363.7,330.2 308.3,397.7 354.7,454.8 376.7,435 352.4,403.4 439.4,277.9 		"/>
	</g>
</g>
</svg>
