<svg xmlns="http://www.w3.org/2000/svg" xmlns:xlink="http://www.w3.org/1999/xlink" version="1.1" x="0px" y="0px" viewBox="0 0 500 625" enable-background="new 0 0 500 500" xml:space="preserve"><g><g><path d="M435,406.488C435,421.683,422.683,434,407.488,434H93.512C78.317,434,66,421.683,66,406.488V92.512    C66,77.317,78.317,65,93.512,65h313.976C422.683,65,435,77.317,435,92.512V406.488z M417,92.516c0-5.256-4.261-9.516-9.516-9.516    H93.516C88.261,83,84,87.261,84,92.516v313.968c0,5.256,4.261,9.516,9.516,9.516h313.968c5.256,0,9.516-4.261,9.516-9.516V92.516z    "/></g><g><path d="M345,325.799c0,8.395-6.806,15.201-15.201,15.201H174.201c-8.395,0-15.201-6.806-15.201-15.201V170.201    c0-8.395,6.806-15.201,15.201-15.201h155.597c8.395,0,15.201,6.806,15.201,15.201V325.799z M330,173.078    c0-1.7-1.378-3.078-3.078-3.078H177.078c-1.7,0-3.078,1.378-3.078,3.078v149.845c0,1.7,1.378,3.078,3.078,3.078h149.845    c1.7,0,3.078-1.378,3.078-3.078V173.078z"/></g><g><g><g><g><circle cx="180.077" cy="113.218" r="11.337"/></g><g><path d="M183.933,165.942c-0.571,0-1.151-0.138-1.69-0.428c-1.725-0.937-2.367-3.093-1.432-4.818l11.608-21.425l-15.383-25.421       c-1.016-1.678-0.477-3.863,1.201-4.88c1.678-1.016,3.863-0.477,4.88,1.201l16.437,27.163c0.653,1.078,0.685,2.422,0.085,3.532       l-12.577,23.215C186.417,165.269,185.196,165.942,183.933,165.942z"/></g></g><g><g><circle cx="225.083" cy="113.218" r="11.337"/></g><g><path d="M228.94,165.942c-0.571,0-1.151-0.138-1.69-0.428c-1.725-0.937-2.367-3.093-1.432-4.818l11.608-21.425l-15.383-25.421       c-1.016-1.678-0.477-3.863,1.201-4.88c1.675-1.016,3.863-0.477,4.88,1.201l16.437,27.163c0.653,1.078,0.685,2.422,0.085,3.532       l-12.577,23.215C231.424,165.269,230.202,165.942,228.94,165.942z"/></g></g><g><g><circle cx="270.089" cy="113.218" r="11.337"/></g><g><path d="M273.946,165.942c-0.571,0-1.151-0.138-1.69-0.428c-1.725-0.937-2.367-3.093-1.432-4.818l11.608-21.425l-15.383-25.421       c-1.016-1.678-0.477-3.863,1.201-4.88c1.678-1.016,3.863-0.477,4.88,1.201l16.437,27.163c0.653,1.078,0.685,2.422,0.085,3.532       l-12.577,23.215C276.43,165.269,275.209,165.942,273.946,165.942z"/></g></g><g><g><circle cx="315.095" cy="113.218" r="11.337"/></g><g><path d="M318.953,165.942c-0.571,0-1.151-0.138-1.69-0.428c-1.725-0.937-2.367-3.093-1.432-4.818l11.608-21.425l-15.383-25.421       c-1.016-1.678-0.477-3.863,1.201-4.88c1.675-1.016,3.866-0.477,4.88,1.201l16.437,27.163c0.653,1.078,0.685,2.422,0.085,3.532       l-12.577,23.215C321.437,165.269,320.215,165.942,318.953,165.942z"/></g></g></g><g><g><g><circle cx="320.195" cy="385.559" r="11.337"/></g><g><path d="M320.198,390.319c-1.201,0-2.375-0.609-3.043-1.713l-16.437-27.166c-0.653-1.078-0.685-2.422-0.085-3.532       l12.577-23.212c0.937-1.722,3.09-2.358,4.818-1.432c1.725,0.937,2.367,3.093,1.432,4.818l-11.608,21.422l15.383,25.423       c1.016,1.678,0.477,3.863-1.201,4.88C321.46,390.155,320.825,390.319,320.198,390.319z"/></g></g><g><g><circle cx="275.189" cy="385.559" r="11.337"/></g><g><path d="M275.191,390.319c-1.201,0-2.375-0.609-3.043-1.713l-16.437-27.166c-0.653-1.078-0.685-2.422-0.085-3.532       l12.577-23.212c0.937-1.722,3.09-2.358,4.818-1.432c1.725,0.937,2.367,3.093,1.432,4.818l-11.608,21.422l15.383,25.423       c1.016,1.678,0.477,3.863-1.201,4.88C276.454,390.155,275.818,390.319,275.191,390.319z"/></g></g><g><g><circle cx="230.183" cy="385.559" r="11.337"/></g><g><path d="M230.185,390.319c-1.201,0-2.375-0.609-3.043-1.713l-16.434-27.166c-0.653-1.078-0.685-2.422-0.085-3.532       l12.574-23.212c0.937-1.722,3.09-2.358,4.818-1.432c1.725,0.934,2.367,3.093,1.432,4.818l-11.605,21.422l15.38,25.423       c1.016,1.678,0.477,3.863-1.201,4.88C231.447,390.155,230.811,390.319,230.185,390.319z"/></g></g><g><g><circle cx="185.177" cy="385.559" r="11.337"/></g><g><path d="M185.181,390.319c-1.201,0-2.375-0.609-3.043-1.713L165.7,361.439c-0.653-1.078-0.685-2.422-0.085-3.532l12.574-23.212       c0.937-1.722,3.09-2.358,4.818-1.432c1.725,0.934,2.367,3.093,1.432,4.818l-11.605,21.422l15.383,25.423       c1.016,1.678,0.477,3.863-1.201,4.88C186.443,390.155,185.808,390.319,185.181,390.319z"/></g></g></g></g><g><g><g><g><circle cx="113.966" cy="319.448" r="11.337"/></g><g><path d="M112.762,323c-1.201,0-2.375-0.609-3.043-1.713c-1.016-1.678-0.477-3.863,1.201-4.88l27.163-16.437       c1.081-0.65,2.422-0.68,3.532-0.085l23.215,12.577c1.725,0.937,2.367,3.093,1.432,4.818c-0.934,1.722-3.087,2.364-4.818,1.432       l-21.425-11.608l-25.421,15.383C114.025,322.836,113.389,323,112.762,323z"/></g></g><g><g><circle cx="113.966" cy="274.441" r="11.337"/></g><g><path d="M112.762,277.993c-1.201,0-2.375-0.609-3.043-1.713c-1.016-1.678-0.477-3.863,1.201-4.88l27.163-16.434       c1.081-0.653,2.422-0.68,3.532-0.085l23.215,12.574c1.725,0.934,2.367,3.093,1.432,4.818c-0.934,1.725-3.087,2.364-4.818,1.432       L140.019,262.1l-25.421,15.38C114.025,277.829,113.389,277.993,112.762,277.993z"/></g></g><g><g><circle cx="113.966" cy="229.435" r="11.337"/></g><g><path d="M112.762,232.989c-1.201,0-2.375-0.609-3.043-1.713c-1.016-1.678-0.477-3.863,1.201-4.88l27.163-16.437       c1.081-0.647,2.422-0.68,3.532-0.085l23.215,12.574c1.725,0.934,2.367,3.093,1.432,4.818s-3.087,2.364-4.818,1.432       l-21.425-11.605l-25.421,15.383C114.025,232.825,113.389,232.989,112.762,232.989z"/></g></g><g><g><circle cx="113.966" cy="184.429" r="11.337"/></g><g><path d="M112.762,187.983c-1.201,0-2.375-0.609-3.043-1.713c-1.016-1.678-0.477-3.863,1.201-4.88l27.163-16.437       c1.081-0.65,2.422-0.68,3.532-0.085l23.215,12.577c1.725,0.937,2.367,3.093,1.432,4.818s-3.087,2.367-4.818,1.432       l-21.425-11.608l-25.421,15.383C114.025,187.819,113.389,187.983,112.762,187.983z"/></g></g></g><g><g><g><circle cx="386.307" cy="179.329" r="11.337"/></g><g><path d="M360.348,199.318c-0.583,0-1.163-0.144-1.693-0.428l-23.212-12.574c-1.725-0.934-2.367-3.093-1.432-4.818       c0.937-1.722,3.093-2.361,4.818-1.432l21.422,11.605l25.423-15.383c1.675-1.016,3.866-0.477,4.88,1.201       c1.016,1.678,0.477,3.863-1.201,4.88l-27.166,16.437C361.622,199.145,360.987,199.318,360.348,199.318z"/></g></g><g><g><circle cx="386.307" cy="224.335" r="11.337"/></g><g><path d="M360.348,244.325c-0.583,0-1.163-0.144-1.693-0.428l-23.212-12.577c-1.725-0.937-2.367-3.093-1.432-4.818       c0.937-1.719,3.093-2.364,4.818-1.432l21.422,11.608l25.423-15.383c1.675-1.013,3.866-0.48,4.88,1.201       c1.016,1.678,0.477,3.863-1.201,4.88l-27.166,16.437C361.622,244.152,360.987,244.325,360.348,244.325z"/></g></g><g><g><circle cx="386.307" cy="269.341" r="11.337"/></g><g><path d="M360.348,289.331c-0.583,0-1.163-0.144-1.693-0.428l-23.212-12.577c-1.725-0.937-2.367-3.093-1.432-4.818       c0.937-1.722,3.093-2.364,4.818-1.432l21.422,11.608l25.423-15.383c1.675-1.016,3.866-0.477,4.88,1.201       c1.016,1.678,0.477,3.863-1.201,4.88l-27.166,16.437C361.622,289.158,360.987,289.331,360.348,289.331z"/></g></g><g><g><circle cx="386.307" cy="314.348" r="11.337"/></g><g><path d="M360.348,334.338c-0.583,0-1.163-0.144-1.693-0.428l-23.212-12.577c-1.725-0.937-2.367-3.093-1.432-4.818       c0.937-1.719,3.093-2.358,4.818-1.432l21.422,11.608l25.423-15.383c1.675-1.013,3.866-0.477,4.88,1.201       c1.016,1.678,0.477,3.863-1.201,4.88l-27.166,16.437C361.622,334.165,360.987,334.338,360.348,334.338z"/></g></g></g></g></g><text x="0" y="515" fill="#000000" font-size="5px" font-weight="bold" font-family="'Helvetica Neue', Helvetica, Arial-Unicode, Arial, Sans-serif">Created by Damian Godoy</text><text x="0" y="520" fill="#000000" font-size="5px" font-weight="bold" font-family="'Helvetica Neue', Helvetica, Arial-Unicode, Arial, Sans-serif">from the Noun Project</text></svg>