<?xml version="1.0" encoding="utf-8"?><!DOCTYPE svg PUBLIC "-//W3C//DTD SVG 1.1//EN" "http://www.w3.org/Graphics/SVG/1.1/DTD/svg11.dtd"><svg version="1.1" xmlns="http://www.w3.org/2000/svg" xmlns:xlink="http://www.w3.org/1999/xlink" x="0px" y="0px" viewBox="0 0 61.718 125" enable-background="new 0 0 61.718 100" xml:space="preserve"><path d="M61.599,22.264c-0.442-1.462-1.985-2.289-3.448-1.847l-16.806,5.128L41.132,24.4l16.601-10.88
	c1.242-0.825,1.606-2.485,0.824-3.754c-0.801-1.301-2.504-1.705-3.805-0.904l-0.05,0.033L37.799,19.453l-1.009-0.805L48.83,4.552
	c0.436-0.514,0.668-1.17,0.654-1.844C49.452,1.181,48.189-0.031,46.662,0c-0.748,0.016-1.457,0.333-1.967,0.879l-14.21,15.39
	l-4.604,2.268l-2.623,0.043l-1.314-1.586l0.345-7.123c0.005-0.11,0.004-0.22-0.003-0.33l-0.444-6.29
	c-0.104-1.438-1.296-2.555-2.737-2.566c-1.527-0.012-2.775,1.217-2.787,2.745l-0.041,6.421l-1.512,6.533
	c-0.026,0.111-0.044,0.224-0.056,0.337l-0.831,7.983L8.142,39.702c-0.492,1.286,0.037,2.738,1.241,3.406l9.914,5.506
	c1.203,0.668,2.715,0.35,3.546-0.747l2.667-3.52l13.573-4.778l15.75,2.833c1.425,0.251,2.803-0.639,3.159-2.042
	c0.377-1.48-0.518-2.985-1.998-3.362l-14.144-3.545l0.068-1.548l17.946-6.23C61.263,25.186,62.028,23.682,61.599,22.264z"/><path d="M54.227,68.628l-20.434-4.611l-4.266-2.852l-1.349-2.252l0.718-1.93l6.341-3.263c0.098-0.051,0.191-0.106,0.283-0.168
	l5.225-3.53c0.769-0.523,1.224-1.397,1.21-2.327c-0.021-1.527-1.277-2.748-2.805-2.726c-0.463,0.007-0.916,0.13-1.32,0.358
	l-5.585,3.177l-6.411,1.956c-0.109,0.033-0.216,0.074-0.32,0.12l-7.331,3.272L2.329,56.386C0.971,56.603-0.022,57.786,0,59.162
	l0.189,11.34c0.023,1.376,1.054,2.526,2.42,2.698l4.38,0.55l10.925,9.364l5.422,15.057c0.493,1.369,1.962,2.122,3.361,1.723
	c1.469-0.42,2.319-1.95,1.9-3.419l-4.002-14.021l1.375-0.715l14.368,12.426c1.122,0.965,2.804,0.876,3.816-0.203
	c1.047-1.113,0.992-2.863-0.12-3.909l-12.845-11.99l0.886-0.758l17.725,8.938c1.332,0.657,2.945,0.146,3.653-1.16
	c0.729-1.343,0.231-3.021-1.11-3.75l-0.053-0.029l-0.005-0.002l-17.593-9.357l0.193-1.273l18.229,3.377
	c1.453,0.264,2.857-0.662,3.188-2.102C56.645,70.456,55.715,68.971,54.227,68.628z"/><text x="0" y="115" fill="#000000" font-size="5px" font-weight="bold" font-family="'Helvetica Neue', Helvetica, Arial-Unicode, Arial, Sans-serif">Created by Jakob Vogel</text><text x="0" y="120" fill="#000000" font-size="5px" font-weight="bold" font-family="'Helvetica Neue', Helvetica, Arial-Unicode, Arial, Sans-serif">from the Noun Project</text></svg>