<svg xmlns:dc="http://purl.org/dc/elements/1.1/" xmlns:cc="http://creativecommons.org/ns#" xmlns:rdf="http://www.w3.org/1999/02/22-rdf-syntax-ns#" xmlns:svg="http://www.w3.org/2000/svg" xmlns="http://www.w3.org/2000/svg" xmlns:sodipodi="http://sodipodi.sourceforge.net/DTD/sodipodi-0.dtd" xmlns:inkscape="http://www.inkscape.org/namespaces/inkscape" viewBox="0 0 100 125" version="1.1" x="0px" y="0px"><g transform="translate(0,-952.36216)"><path style="color:#000000;font-style:normal;font-variant:normal;font-weight:normal;font-stretch:normal;font-size:medium;line-height:normal;font-family:sans-serif;text-indent:0;text-align:start;text-decoration:none;text-decoration-line:none;text-decoration-style:solid;text-decoration-color:#000000;letter-spacing:normal;word-spacing:normal;text-transform:none;direction:ltr;block-progression:tb;writing-mode:lr-tb;baseline-shift:baseline;text-anchor:start;white-space:normal;clip-rule:nonzero;display:inline;overflow:visible;visibility:visible;opacity:1;isolation:auto;mix-blend-mode:normal;color-interpolation:sRGB;color-interpolation-filters:linearRGB;solid-color:#000000;solid-opacity:1;fill:#000000;fill-opacity:1;fill-rule:nonzero;stroke:none;stroke-width:0.25;stroke-linecap:butt;stroke-linejoin:miter;stroke-miterlimit:4;stroke-dasharray:none;stroke-dashoffset:0;stroke-opacity:1;color-rendering:auto;image-rendering:auto;shape-rendering:auto;text-rendering:auto;enable-background:accumulate" d="m 28.786257,1043.0196 c 2.09354,1.105 3.83626,1.7234 5.03814,2.1506 16.47408,4.1578 31.33981,2.8734 44.35103,-7.9672 12.736235,-10.7748 18.770225,-27.859 15.628075,-44.25077 -0.86431,-4.5088 -2.82902,-9.79588 -5.138185,-13.82734 -1.16692,-2.0373 -3.70388,-5.56852 -5.22211,-7.26646 -2.52965,-2.82909 -6.16661,-5.90173 -9.38372,-7.92897 -7.7112,-4.85915 -17.5089,-7.21657 -26.64802,-6.41254 -12.42758,1.09329 -24.09541,7.90209 -31.81437,17.15171 -7.0174399,8.40898 -10.7406299,20.21979 -10.1616899,31.23167 0.22441,4.2691 0.66489,6.8012 1.86268,10.7393 1.70783,5.6151 3.5545899,9.3554 6.8312699,13.8227 4.21223,5.7428 8.16722,9.1309 14.6569,12.5573 z m -4.57577,-4.6894 c -0.58324,-0.3049 -1.26024,-0.7777 -2.1231,-1.4786 -3.68023,-3.1889 -6.63743,-6.8747 -8.73326,-10.7597 0,0 1.01035,-6.4123 1.63241,-9.5667 3.61797,0.2708 7.34237,1.0579 10.6601,1.516 0.66539,0.088 1.28488,0.1745 1.74106,0.2457 0.22794,0.036 0.41657,0.068 0.54578,0.092 0.0391,0.01 0.062,0.013 0.0868,0.018 0.19522,0.1353 0.70027,0.5892 1.34357,1.2541 0.66545,0.6878 1.49314,1.5914 2.40005,2.6217 1.81386,2.0607 3.95223,4.6278 5.80529,7.0086 l 1.68544,2.1654 c -0.31266,3.2323 -1.09491,6.2805 -1.05369,9.1647 -4.3965,-0.6208 -8.0676,-1.3073 -12.41727,-1.8023 l -0.004,4e-4 -0.003,8e-4 c -0.49662,-0.036 -1.56719,-0.4798 -1.56719,-0.4798 z m 15.5955,2.5379 c -0.003,0 -0.005,0 -0.007,0 l 0.0118,0 z m 0.0202,-0.1158 c -0.0397,-3.1191 0.28989,-5.8894 1.07836,-8.8495 0.18666,-0.4898 0.29613,-0.5644 0.71786,-0.8227 0.32848,-0.201 1.08338,-0.5525 2.08286,-0.9738 0.99948,-0.4213 2.24808,-0.9152 3.58287,-1.4139 2.66992,-0.9974 5.73417,-2.0477 8.06043,-2.7307 l 2.33943,-0.686 13.89856,5.1416 c 0,0 -1.26035,6.8308 -2.25774,10.2724 -0.15368,0.4484 -0.20084,0.4947 -0.37422,0.6564 -5.92417,3.1242 -9.95876,4.6899 -15.28581,4.6634 -3.62675,-1.0257 -7.41338,-2.335 -10.76188,-3.6934 l -0.002,-10e-4 -0.003,9e-4 c -1.11549,-0.4203 -2.0539,-0.9482 -3.07693,-1.5637 z m -25.14923,-26.0675 -4.21359,-16.5875 c 0,0 6.13164,-9.39277 9.21603,-14.07584 l 0.58575,0.0457 c 4.20571,0.31939 8.02644,0.66512 9.41241,0.85129 0.46208,0.0621 0.94807,0.13991 1.3533,0.21474 0.40437,0.0747 0.76085,0.15991 0.83796,0.18575 0.12588,0.0423 0.18909,0.0661 0.21348,0.0779 0.0243,0.012 0.002,-0.009 0.0162,0.0121 -0.004,-0.007 0.006,0.0135 0.016,0.0443 0.0101,0.0307 0.0226,0.0753 0.0369,0.13295 0.0286,0.11542 0.0633,0.28487 0.10154,0.51501 l 8.3e-4,0.003 10e-4,0.004 c 1.33412,5.92178 2.58313,10.63224 4.03699,16.2063 l -2.6944,4.6356 c -1.45116,2.4962 -2.76343,4.7106 -3.78402,6.3936 -1.02049,1.6827 -1.78258,2.8724 -2.00902,3.1646 -0.0573,0.074 -0.0893,0.1102 -0.10532,0.1234 -0.0161,0.013 -0.0198,0.014 -0.0626,0.025 -0.0547,0.015 -0.27863,0.03 -0.66449,-8e-4 l -0.005,-6e-4 c -4.21416,-0.6604 -12.28966,-1.9708 -12.28966,-1.9708 z M 7.3777271,997.84744 c 0.007,-0.0408 0.0117,-0.0764 0.0213,-0.12846 0.0709,-0.38771 0.19019,-0.98147 0.29384,-1.46983 0.24632,-1.16051 0.42825,-2.33203 0.7769,-3.45088 1.29251,-4.14783 2.7193599,-8.30685 4.8565299,-12.07648 1.65547,-2.91989 4.07214,-5.80177 6.09898,-8.03714 0.99206,-1.09411 1.56271,-1.68659 1.93092,-1.96149 0.37462,-0.27967 0.48764,-0.28439 0.94739,-0.2962 0.0125,-2.6e-4 0.0227,-4.1e-4 0.0342,-5.6e-4 -0.0101,0.0204 -0.0158,0.0361 -0.0295,0.0618 -0.23938,0.48553 -0.58314,1.15641 -0.97074,1.88935 -1.2626,2.38934 -1.51556,3.00143 -2.00121,4.82355 -0.28748,1.07868 -0.53429,2.22617 -0.70069,3.21568 -0.16305,0.96954 -0.25238,1.73937 -0.21022,2.27374 l -0.007,0.0132 0.003,0.0299 -9.5e-4,0.002 c 0.0156,0.17165 -0.0584,0.29381 -0.0584,0.29381 -3.09378,4.89405 -6.40678,9.65116 -9.4351199,14.58637 -0.50565,0.10195 -1.06743,0.17131 -1.54982,0.23213 z m 50.8028299,25.85466 c -0.009,-5.6782 -1.94209,-16.3445 -1.94209,-16.3445 0,0 0.0383,-0.045 0.0654,-0.077 4.44649,-4.3213 12.78896,-13.16617 12.78896,-13.16617 l 0.90503,0.18749 c 2.16482,0.44655 4.15963,1.02574 6.8746,1.99832 1.45692,0.52192 3.50587,1.35263 4.49122,1.8166 l 1.58564,0.7466 c 0.47179,6.09456 1.55602,16.79996 1.55602,16.79996 -3.53735,5.0052 -8.43215,9.6749 -12.40183,13.1134 z m -20.46601,-22.0405 c 0,0 -3.09279,-11.54877 -4.06258,-16.37109 l -0.0547,-0.42205 2.42395,-2.45439 c 1.62287,-1.64238 4.03634,-4.00051 6.0804,-5.96354 1.02204,-0.98153 1.95356,-1.86486 2.64536,-2.50833 0.35776,-0.34182 0.70763,-0.64704 1.07063,-0.96721 l 16.87009,3.96097 c 0,0 4.38986,11.49286 5.05409,16.32885 0,0 -6.66228,7.66249 -10.59845,11.23879 -1.00098,0.9032 -1.80966,1.7243 -1.80966,1.7243 -3.85414,-0.4857 -11.53518,-2.5329 -11.53518,-2.5329 0,0 -4.1308,-1.1407 -6.08394,-2.0334 z m 48.6182,14.3052 c -0.84504,-5.5471 -1.28938,-11.9718 -1.91995,-17.46416 l 0.68274,-3.90528 c 0.36997,-2.11609 0.79671,-4.42646 1.1611,-6.31003 0.36437,-1.88343 0.68336,-3.39494 0.77716,-3.72086 0.0264,-0.0916 0.0393,-0.13774 0.0393,-0.13774 0.7696,-0.18999 1.54382,-0.2679 2.2785,-0.3483 l 0.775235,2.23582 0.002,9.6e-4 c 3.26641,8.64457 3.39818,18.01229 1.43326,25.98659 -0.46071,1.8697 -0.94025,3.5052 -1.4895,5.2529 -0.0721,0.2296 -0.111155,0.3162 -0.151045,0.4182 -1.23047,-0.667 -2.51797,-1.324 -3.58832,-2.008 z m -61.99935,-47.55246 c 0.83035,-0.64502 1.83666,-1.40381 2.65109,-1.98016 3.31288,-2.34445 4.95552,-3.13829 9.86871,-4.76699 1.18617,-0.3932 2.61969,-0.8308 3.23866,-0.99466 l -0.22174,0.38432 -0.75519,1.31472 -1.71245,0.57994 c -2.29046,0.7776 -7.73759,3.09329 -11.25546,4.7781 -1.06514,0.51013 -1.40232,0.57407 -1.81361,0.68473 z m 21.2792,2.85716 -0.93673,-1.75898 c -0.66917,-1.2563 -1.44974,-2.63578 -2.13345,-3.78867 -0.68348,-1.15252 -1.24005,-2.04675 -1.58004,-2.46249 l -0.19301,-0.23694 0.50246,-0.94313 c 0.66288,-1.24424 0.98251,-1.79638 1.28981,-2.03102 0.30901,-0.23596 0.80819,-0.33053 2.02492,-0.52114 7.29632,-1.14313 13.03753,-0.53205 21.26963,2.27592 2.78424,1.10782 7.68346,3.59663 7.68346,3.59663 l 0.47834,5.38141 c 0,0 -6.22657,3.43661 -9.49404,4.49626 -0.49379,0.15574 -0.88033,0.18457 -0.88033,0.18457 0,0 -12.14882,-3.08356 -18.03116,-4.1925 z m 41.352,11.55633 c -3.67851,-4.31843 -11.41026,-11.69848 -11.41026,-11.69848 l -8.4e-4,-0.003 -0.007,-0.0152 c 0,0 -0.13749,-2.83765 -0.20094,-4.25341 0,0 0.2404,0.18284 0.4698,0.37685 l 0.003,0.004 0.004,0.002 c 5.8709,4.2063 10.26828,9.8769 12.43967,14.77618 l 10e-4,0.004 c 0.0922,0.15887 0.16966,0.33607 0.24267,0.48067 -0.50043,0.15178 -1.54252,0.3248 -1.54252,0.3248 z"/></g><text x="0" y="115" fill="#000000" font-size="5px" font-weight="bold" font-family="'Helvetica Neue', Helvetica, Arial-Unicode, Arial, Sans-serif">Created by anbileru adaleru</text><text x="0" y="120" fill="#000000" font-size="5px" font-weight="bold" font-family="'Helvetica Neue', Helvetica, Arial-Unicode, Arial, Sans-serif">from the Noun Project</text></svg>