<svg xmlns="http://www.w3.org/2000/svg" xmlns:xlink="http://www.w3.org/1999/xlink" version="1.1" x="0px" y="0px" viewBox="0 0 100 125" enable-background="new 0 0 100 100" xml:space="preserve"><g><rect x="15" y="42.5" width="5" height="17.5"/><rect x="20" y="60" width="5" height="10"/><rect x="25" y="70" width="5" height="5"/><rect x="30" y="75" width="5" height="5"/><rect x="35" y="80" width="5" height="5"/><rect x="40" y="85" width="5" height="5"/><rect x="45" y="60" width="5" height="5"/><rect x="50" y="65" width="5" height="5"/><rect x="55" y="70" width="5" height="5"/><polygon points="60,75 60,80 60,85 65,85 65,80 70,80 70,75 65,75  "/><rect x="35" y="50" width="5" height="5"/><rect x="40" y="55" width="5" height="5"/><polygon points="20,35 20,30 15,30 15,15 10,15 10,42.5 15,42.5 15,35  "/><rect x="20" y="35" width="5" height="5"/><rect x="25" y="40" width="5" height="5"/><rect x="30" y="45" width="5" height="5"/><rect x="60" y="40" width="5" height="5"/><rect x="65" y="45" width="5" height="5"/><rect x="70" y="50" width="5" height="5"/><rect x="50" y="30" width="5" height="5"/><rect x="55" y="35" width="5" height="5"/><polygon points="35,15 35,20 40,20 40,15 47.5,15 52.5,15 85,15 85,10 52.5,10 47.5,10 35,10 30,10 15,10 15,15 30,15  "/><rect x="40" y="20" width="5" height="5"/><rect x="45" y="25" width="5" height="5"/><polygon points="45,90 45,95 50,95 55,95 55,90 50,90  "/><rect x="85" y="15" width="5" height="27.5"/><polygon points="80,55 75,55 75,60 75,70 80,70 80,60 85,60 85,42.5 80,42.5  "/><rect x="70" y="70" width="5" height="5"/><rect x="55" y="85" width="5" height="5"/></g><text x="0" y="115" fill="#000000" font-size="5px" font-weight="bold" font-family="'Helvetica Neue', Helvetica, Arial-Unicode, Arial, Sans-serif">Created by Louis Dawson</text><text x="0" y="120" fill="#000000" font-size="5px" font-weight="bold" font-family="'Helvetica Neue', Helvetica, Arial-Unicode, Arial, Sans-serif">from the Noun Project</text></svg>