<svg xmlns="http://www.w3.org/2000/svg" xmlns:xlink="http://www.w3.org/1999/xlink" version="1.1" x="0px" y="0px" viewBox="0 0 100 100" enable-background="new 0 0 100 100" xml:space="preserve"><path fill="#000000" d="M50.122,41.041c7.869,0,14.251-6.389,14.251-14.253c0-7.875-6.383-14.25-14.251-14.25  c-7.868,0-14.249,6.374-14.249,14.25C35.873,34.652,42.254,41.041,50.122,41.041z"></path><path fill="#000000" d="M27.8,100V87.354l-12.681,3.529c-0.931,0.37-1.942,0.577-2.999,0.577C7.636,91.461,4,87.814,4,83.336  c0-1.688,0.512-3.249,1.387-4.544l20.342-27.893c2.209-3.026,5.293-6.396,11.797-6.396h24.594c6.501,0,9.587,3.371,11.793,6.396  l20.341,27.893c0.875,1.295,1.39,2.856,1.39,4.544c0,4.479-3.64,8.125-8.12,8.125c-1.056,0-2.071-0.207-2.999-0.577l-12.686-3.529  V100H27.8z M49.822,91.165L49.822,91.165l16.433-5.437l-0.37-0.104c-11.339-3.336-6.924-18.316,4.412-14.972l1.55,0.521V54.258  l-22.025,7.195l-22.024-7.195v16.916l1.542-0.521c11.345-3.345,15.758,11.636,4.414,14.974l-0.363,0.102L49.822,91.165  L49.822,91.165z"></path><g><path fill="#000000" d="M14.6,36.034c0.506,1.087,1.725,1.789,3.105,1.789h0.003c1.378,0,2.597-0.702,3.104-1.789l0.351-0.752   h-6.915L14.6,36.034z"></path><path fill="#000000" d="M21.483,31.167l-7.524-0.001c-0.514,0.001-0.827,0.227-0.998,0.416c-0.218,0.24-0.337,0.567-0.336,0.919   c-0.001,0.377,0.133,0.721,0.376,0.964c0.243,0.244,0.575,0.373,0.96,0.373h7.522c0.787,0,1.336-0.549,1.336-1.336   C22.817,31.716,22.269,31.167,21.483,31.167z"></path><path fill="#000000" d="M22.519,27.223h-9.596c-0.786,0.002-1.334,0.551-1.334,1.337c0,0.787,0.549,1.336,1.334,1.336h9.595   c0.787,0,1.336-0.55,1.336-1.335c0.001-0.377-0.133-0.72-0.376-0.965C23.234,27.352,22.903,27.223,22.519,27.223z"></path><path fill="#000000" d="M26.435,3.586c-2.276-2.273-5.307-3.526-8.534-3.526c-6.639,0-12.041,5.401-12.042,12.04   c0.001,3.25,1.349,6.41,3.657,8.628c0.597,0.717,0.967,1.685,1.092,4.511c0.041,0.895,0.688,1.52,1.658,1.52   c0.001,0,0.003,0,0.005,0c0.448-0.02,0.848-0.198,1.128-0.503c0.278-0.303,0.414-0.704,0.393-1.159   c-0.146-3.276-0.667-5.042-1.959-6.554c-1.771-1.688-2.786-4.036-2.786-6.442c0-4.882,3.971-8.854,8.851-8.854   c4.897,0,8.88,3.973,8.88,8.854c0,2.406-1.016,4.755-2.824,6.484c-1.254,1.47-1.774,3.235-1.92,6.514   c-0.041,0.922,0.599,1.621,1.519,1.662l0.083,0.002c0.891,0,1.541-0.626,1.581-1.523c0.126-2.825,0.496-3.793,1.053-4.468   c2.35-2.262,3.697-5.422,3.696-8.671C29.964,8.882,28.71,5.859,26.435,3.586z M23.633,26.225L23.633,26.225l0.001,0.008   L23.633,26.225z"></path></g></svg>