<svg xmlns:dc="http://purl.org/dc/elements/1.1/" xmlns:cc="http://creativecommons.org/ns#" xmlns:rdf="http://www.w3.org/1999/02/22-rdf-syntax-ns#" xmlns:svg="http://www.w3.org/2000/svg" xmlns="http://www.w3.org/2000/svg" version="1.1" viewBox="0 0 100.00001 125" xml:space="preserve" x="0px" y="0px"><path d="m 52.25,5 c -0.858908,0.04644 -1.871026,0.454158 -3.09375,1.4375 -4.571741,3.676149 -5.218345,-2.9408105 -9.4375,1.1875 -3.516056,3.441428 -5.191548,-1.3422393 -8.0625,2.15625 -1.090785,1.328943 -2.48889,2.106199 -3.59375,2.5625 -0.460063,0.249121 -0.639601,0.830349 -0.375,1.28125 0.489601,0.836102 10.989933,6.467094 12.375,9.375 0,0 -2.25,0.291287 -2.25,1.90625 0,1.614964 2.21875,2 2.21875,2 C 39.822432,27.968252 39.428621,28.28994 39.0625,28.5 35.141263,30.752345 17.292228,43.286874 22.21875,83 c 0,0 -1.90625,2.410424 -1.90625,4.71875 0,2.306525 1.416713,4.34375 7.625,4.34375 C 33.962545,92.0625 34.044857,95 50,95 c 15.95545,0 16.03461,-2.9375 22.0625,-2.9375 6.206161,0 7.625,-2.037225 7.625,-4.34375 C 79.6875,85.410424 77.78125,83 77.78125,83 83.305335,38.470963 60.1875,28.09375 60.1875,28.09375 59.637455,27.848049 59.070932,27.549201 58.59375,26.75 c 0,0 1.8125,-0.412026 1.8125,-1.84375 0,-1.814944 -2.65625,-2 -2.65625,-2 C 58.1298,19.096721 66.699451,12.386953 69,10.65625 69.304183,10.362129 69.4089,9.8819609 69.1875,9.5 68.158996,7.8574966 65.14782,4.286501 60.125,7.71875 56.776884,10.005835 55.605847,5.00432 52.40625,5 52.35007,5 52.307277,4.9964 52.25,5 z M 50,37.90625 c 0.917822,0 1.65625,0.738428 1.65625,1.65625 l 0,3.90625 c 1.856614,0.14148 3.615497,0.534169 5.09375,1.15625 1.376247,0.594181 2.599592,1.513827 3.625,2.71875 0.809588,0.917642 1.403271,1.841038 1.84375,2.8125 0.440551,0.972183 0.6875,1.877859 0.6875,2.6875 0,0.899102 -0.342891,1.688008 -1,2.34375 -0.657128,0.657001 -1.439268,0.96875 -2.375,0.96875 -1.763572,0 -2.916075,-0.937365 -3.4375,-2.84375 -0.593731,-2.248565 -2.014488,-3.761998 -4.28125,-4.5 -0.05116,-0.0108 -0.10558,-0.02117 -0.15625,-0.03125 l 0,11.21875 0.15625,0.03125 c 2.230295,0.612542 3.990163,1.183499 5.3125,1.6875 1.322949,0.503281 2.51884,1.234218 3.5625,2.1875 1.115175,0.989462 1.959337,2.186215 2.5625,3.5625 0.602425,1.376283 0.90625,2.862536 0.90625,4.5 0,2.051644 -0.47475,3.960076 -1.4375,5.75 -0.962696,1.790464 -2.379238,3.272968 -4.25,4.40625 -2.034762,1.133283 -4.410411,1.793899 -6.8125,2 l 0,3.90625 c 0,0.917822 -0.738429,1.65625 -1.65625,1.65625 -0.917876,0 -1.65625,-0.738428 -1.65625,-1.65625 l 0,-3.90625 c -1.972606,-0.169381 -3.879293,-0.645029 -5.5,-1.40625 -1.57459,-0.755642 -2.8843,-1.688037 -3.9375,-2.8125 -1.052408,-1.124102 -1.809257,-2.316247 -2.3125,-3.53125 -0.503246,-1.214282 -0.75,-2.392677 -0.75,-3.5625 0,-0.863641 0.325305,-1.650928 1,-2.34375 0.674622,-0.692821 1.52332,-1.03125 2.53125,-1.03125 0.809588,0 1.473322,0.184139 2.03125,0.5625 0.557965,0.377821 0.94106,0.911008 1.15625,1.59375 0.485677,1.475463 0.920961,2.592359 1.28125,3.375 0.359569,0.781922 0.896358,1.508429 1.625,2.15625 0.728605,0.648362 1.638863,1.18997 2.84375,1.53125 0,0 0.02641,-0.0018 0.03125,0 l 0,-12.59375 c -2.393555,-0.662402 -4.389915,-1.405148 -6,-2.21875 -1.619896,-0.818462 -2.929588,-1.987997 -3.9375,-3.5 C 37.398266,58.832647 36.875,56.874565 36.875,54.5 c 0,-3.093847 0.998772,-5.614825 2.96875,-7.59375 2.028875,-2.027344 5.214093,-3.12077 8.5,-3.40625 l 0,-3.9375 c 0,-0.917822 0.738374,-1.65625 1.65625,-1.65625 z m -1.65625,10.8125 c -1.255935,0.13734 -2.662566,1.051528 -3.5,1.78125 -0.84602,0.738182 -1.25,1.850826 -1.25,3.34375 0,1.421283 0.3962,2.490288 1.1875,3.21875 0.784694,0.723241 1.963988,1.378709 3.5625,1.96875 l 0,-10.3125 z m 3.3125,18.3125 0,11.875 c 0.0508,-0.0072 0.105184,-0.02315 0.15625,-0.03125 1.816762,-0.360361 3.229018,-1.089857 4.21875,-2.1875 C 57.020208,75.590578 57.5,74.333003 57.5,72.875 c 0,-1.565104 -0.474786,-2.770179 -1.4375,-3.625 -0.96275,-0.853922 -2.379255,-1.593859 -4.25,-2.1875 l -0.15625,-0.03125 z" transform="translate(0,-5e-6)" style="" fill="#000000" fill-opacity="1"/><text x="0" y="115" fill="#000000" font-size="5px" font-weight="bold" font-family="'Helvetica Neue', Helvetica, Arial-Unicode, Arial, Sans-serif">Created by Aha-Soft</text><text x="0" y="120" fill="#000000" font-size="5px" font-weight="bold" font-family="'Helvetica Neue', Helvetica, Arial-Unicode, Arial, Sans-serif">from the Noun Project</text></svg>