<svg xmlns="http://www.w3.org/2000/svg" xmlns:xlink="http://www.w3.org/1999/xlink" version="1.1" x="0px" y="0px" viewBox="0 0 100 125" enable-background="new 0 0 100 100" xml:space="preserve"><g display="none"><g><polygon display="inline" fill="#000000" points="122.977,103.021 85.188,140.812 17,72.625 45.482,25.53   "/><polygon display="inline" fill="#000000" points="148.131,97.504 111.505,134.13 32.375,55 70.014,19.39   "/><text transform="matrix(1 0 0 1 20.2715 72.3789)" display="inline" fill="#000000" font-family="'HelveticaNeue-Bold'" font-size="65.6273">Fl</text><g display="inline"><path d="M91,9v82H9V9H91 M95,5H5v90h90V5L95,5z"/></g></g><g><path display="inline" d="M52.986,62.83c0.678,1.027,1.531,1.859,2.559,2.494s2.266,0.951,3.709,0.951    c1.53,0,2.811-0.305,3.84-0.918c1.027-0.613,1.848-1.435,2.461-2.461c0.611-1.028,1.049-2.199,1.312-3.513    c0.262-1.312,0.393-2.668,0.393-4.067c0-1.4-0.131-2.746-0.393-4.037c-0.264-1.29-0.713-2.428-1.346-3.412    c-0.636-0.984-1.455-1.782-2.461-2.396c-1.009-0.612-2.276-0.919-3.808-0.919c-1.532,0-2.821,0.307-3.873,0.919    c-1.049,0.613-1.894,1.422-2.524,2.428c-0.635,1.007-1.096,2.155-1.379,3.447c-0.285,1.291-0.428,2.637-0.428,4.034    c0,1.312,0.153,2.625,0.46,3.938C51.814,60.632,52.307,61.803,52.986,62.83z M95,5v90H5V5H95z M91,9H9v82h34.38L24.87,72.49    l0.02-0.11H35.1V25.85l13.88,13.88c-1.35,0.87-2.51,1.93-3.48,3.18c-1.24,1.62-2.18,3.49-2.82,5.61c-0.63,2.13-0.95,4.32-0.95,6.6    c0,2.36,0.32,4.64,0.95,6.819c0.64,2.189,1.58,4.131,2.82,5.811c1.25,1.689,2.84,3.02,4.76,4.01c1.932,0.98,4.16,1.471,6.7,1.471    c2.229,0,4.229-0.399,6-1.211c1.771-0.81,3.21-2.14,4.3-3.97h0.131v4.33h8.859V25.63L91,40.38V9z M76.252,73.814L76.252,73.814    L76.252,73.814L76.252,73.814L76.252,73.814z"/></g><g><path display="inline" d="M41.507,36.94c0.502,0.919,0.755,2.123,0.755,3.61c0,1.488-0.252,2.69-0.755,3.609    s-1.171,1.63-2.001,2.133c-0.832,0.503-1.794,0.843-2.888,1.017c-1.094,0.176-2.231,0.263-3.413,0.263h-8.007V33.527h8.007    c1.181,0,2.318,0.088,3.413,0.263c1.093,0.175,2.056,0.515,2.888,1.017C40.336,35.311,41.004,36.021,41.507,36.94z M95,5v90H5V5    H95z M91,9H9v82h24.38L14.94,72.561l0.15-0.181H25.2v-16.8h10.83c2.93,0,5.42-0.43,7.48-1.28c2.05-0.85,3.73-1.979,5.02-3.38    c1.29-1.4,2.23-3.01,2.82-4.82c0.592-1.82,0.892-3.67,0.892-5.55c0-1.93-0.3-3.78-0.892-5.58c-0.529-1.61-1.358-3.05-2.45-4.35    l0.07-0.09L59.6,41.16c-0.56,0.55-1.06,1.18-1.488,1.88c-0.852,1.4-1.28,3.2-1.28,5.38c0,1.49,0.31,2.75,0.92,3.78    s1.42,1.88,2.431,2.56c1,0.682,2.149,1.221,3.439,1.641c1.29,0.41,2.62,0.779,3.97,1.08c3.33,0.699,5.92,1.399,7.78,2.101    c1.859,0.701,2.79,1.75,2.79,3.149c0,0.83-0.2,1.521-0.591,2.069c-0.399,0.55-0.891,0.979-1.479,1.312    c-0.589,0.33-1.25,0.568-1.97,0.72c-0.721,0.16-1.41,0.229-2.061,0.229c-0.92,0-1.811-0.101-2.66-0.33    c-0.859-0.211-1.609-0.551-2.271-1.01c-0.649-0.461-1.188-1.051-1.601-1.771c-0.42-0.729-0.629-1.591-0.629-2.601h-8.86    c0.09,2.279,0.601,4.17,1.54,5.68c0.949,1.511,2.15,2.721,3.609,3.641c1.471,0.92,3.141,1.58,5.021,1.971    c1.89,0.399,3.81,0.59,5.78,0.59c1.93,0,3.818-0.181,5.68-0.561c1.859-0.37,3.51-1.01,4.95-1.93c1.45-0.92,2.62-2.131,3.51-3.641    c0.899-1.511,1.351-3.381,1.351-5.619c0-1.57-0.311-2.892-0.92-3.972c-0.609-1.069-1.42-1.97-2.431-2.688    c-1.01-0.721-2.149-1.301-3.438-1.74c-1.301-0.43-2.621-0.801-3.971-1.109c-1.32-0.311-2.609-0.591-3.881-0.851    c-1.27-0.271-2.39-0.56-3.38-0.89c-0.979-0.33-1.78-0.75-2.39-1.28c-0.61-0.53-0.92-1.2-0.92-2.03c0-0.7,0.17-1.26,0.52-1.68    c0.35-0.41,0.78-0.73,1.28-0.95c0.51-0.22,1.06-0.36,1.68-0.43c0.61-0.06,1.181-0.09,1.7-0.09c1.67,0,3.109,0.31,4.34,0.95    c1.221,0.63,1.9,1.85,2.03,3.64h8.858c-0.18-2.1-0.709-3.84-1.608-5.22c-0.61-0.94-1.341-1.74-2.16-2.42l0.271-0.03L91,48.63V9z"/></g><g><path display="inline" d="M45.85,54.266H33.708l6.103-17.194h0.131L45.85,54.266z M95,5v90H5V5H95z M91,9H9v82h26.38L17,72.62    l0.15-0.24h10.19l3.68-10.438h17.52l3.54,10.438h10.699L45.35,25.75l0.13-0.22l20.629,20.62l0.021-0.02v26.25h9.32V38.45h-4.13    l-5.262-5.26l0.07-0.06v0.07h9.32v-7.58l0.279-0.23L91,40.66V9z"/></g><g><g display="inline"><path d="M9,9v82h26.38L17,72.62l0.15-0.24h10.19l3.68-10.438h17.52l3.54,10.438h10.699L45.35,25.75l0.13-0.22l20.629,20.62     l0.021-0.02v26.25h9.32V38.45h-4.13l-5.262-5.26l0.07-0.06v0.07h9.32v-7.58l0.279-0.23L91,40.66V9H9z M45.85,54.27H33.71     l6.1-17.2h0.13L45.85,54.27z"/></g></g><path d="M97.695,61.951c0.001,0.045,0.007,0.09,0.007,0.135v1.668c0,4.854-3.935,8.787-8.788,8.787H54.7v-9.33h10.855L50,45.655   L34.444,63.21H45.3v9.331H11.086c-4.854,0-8.788-3.934-8.788-8.787v-1.668c0-0.471,0.048-0.932,0.12-1.383   c-0.072-0.613-0.12-1.232-0.12-1.863c0-8.717,7.067-15.784,15.784-15.784c0.772,0,1.524,0.074,2.267,0.181   c2.318-9.528,11.967-15.778,22.255-15.778c9.293,0,17.326,5.376,21.169,13.186c1.784-0.615,3.692-0.965,5.686-0.965   c6.706,0,12.521,3.783,15.45,9.327c7.068,0.008,12.794,5.74,12.794,12.808C97.702,61.861,97.696,61.904,97.695,61.951z"/></g><g display="none"><g display="inline"><g><path d="M65.863,14.034v30.583H35.28V14.034H65.863z M19.988,95.59V3.839h61.167v81.556h-5.098v5.097h-5.096v5.098H19.988z      M65.863,70.104h-5.098V75.2h5.098V70.104z M25.085,70.104h5.098V75.2h5.097v-5.096h5.097v-5.098H35.28v-5.098h-5.097v5.098     h-5.098V70.104z M76.057,59.909h-5.096v5.098h5.096V59.909z M76.057,8.937H25.085v40.778h45.876v-5.098h5.096V8.937z"/></g></g></g><g><path d="M89.134,32.973v-5.509h-5.509v-5.509v-5.509h-5.509v-5.509h-5.509h-5.51V5.429h-5.509H56.08h-5.509h-5.509h-5.509h-5.509   v5.509h-5.509h-5.509v5.509h-5.509v5.509v5.509h-5.509v5.509H6.5v5.509v5.509V49.5v5.509v5.509v5.509v5.509h5.509h5.509v5.51v5.509   v5.509h5.509v5.509h5.509h5.509h5.509h5.509h5.509h5.509h5.509h5.509h5.51h5.509v-5.509h5.509v-5.509v-5.509v-5.51h5.509h5.509   v-5.509v-5.509v-5.509V49.5v-5.509v-5.509v-5.509H89.134z M61.589,10.938v5.509h5.509h5.51v5.509v5.509h-5.51h-5.509v-5.509H56.08   v-5.509v-5.509H61.589z M34.044,55.009V49.5v-5.509v-5.509h5.509v-5.509h5.509h5.509h5.509h5.509v5.509h5.509v5.509V49.5v5.509   h-5.509v5.509H56.08h-5.509h-5.509h-5.509v-5.509H34.044z M28.536,16.446h5.509h5.509v-5.509h5.509v5.509v5.509h-5.509v5.509   h-5.509h-5.509v-5.509V16.446z M12.009,49.5v-5.509v-5.509h5.509v-5.509h5.509h5.509v5.509v5.509V49.5h-5.509v5.509h-5.509h-5.509   V49.5z M78.116,77.045v5.509h-5.509v5.509h-5.51h-5.509H56.08h-5.509h-5.509h-5.509h-5.509h-5.509v-5.509h-5.509v-5.509v-5.51   h5.509v-5.509h5.509h5.509v5.509v5.51h5.509v-5.51v-5.509h5.509h5.509v5.509v5.51h5.509v-5.51v-5.509h5.509h5.51v5.509h5.509   V77.045z M89.134,43.991V49.5v5.509h-5.509h-5.509V49.5h-5.509v-5.509v-5.509v-5.509h5.509h5.509v5.509h5.509V43.991z"/></g><text x="0" y="115" fill="#000000" font-size="5px" font-weight="bold" font-family="'Helvetica Neue', Helvetica, Arial-Unicode, Arial, Sans-serif">Created by Haik Dettmann</text><text x="0" y="120" fill="#000000" font-size="5px" font-weight="bold" font-family="'Helvetica Neue', Helvetica, Arial-Unicode, Arial, Sans-serif">from the Noun Project</text></svg>