<svg xmlns="http://www.w3.org/2000/svg" xmlns:xlink="http://www.w3.org/1999/xlink" version="1.1" x="0px" y="0px" viewBox="0 0 100 125" enable-background="new 0 0 100 100" xml:space="preserve"><g><path d="M91.197,60.651c1.849-3.158,0.561-8.121,0.051-9.768c2.284-5.573-2.129-19.87-4.073-24.624   c-1.504-3.672-4.536-7.017-6.751-9.459c-0.987-1.088-1.84-2.03-2.165-2.579c-1.36-2.304-3.089-3.41-5.602-3.586   c-0.548-0.038-0.556-0.052-0.919-0.754c-0.28-0.542-0.666-1.284-1.466-2.045c-0.968-0.921-1.99-1.105-3.161-0.924   c-0.393,0.062-0.689,0.315-1.715-0.275c-2.385-1.374-3.76-1.976-6.896-1.976c-3.645,0-4.85,6.91-5.113,8.916   c-0.73,3.178-0.73,13.47-0.732,21.741c0,3.137,0,5.82-0.046,7.367c-0.104,3.61,0.927,5.905,1.782,7.173   c-2.055,2.149-2.617,7.339-2.467,9.176c0.101,1.235,0.501,1.982,0.79,2.528c0.353,0.659,0.529,0.989-0.033,2.488   c-1.345,3.597-0.592,14.924-0.02,16.732c0.257,0.802,0.659,1.252,0.979,1.613c0.465,0.522,0.946,1.062,1.014,3.865   c0.141,5.836,9.39,8.458,11.758,8.458c2.395,0,6.265-1.905,6.621-2.085c8.351-3.482,11.383-10.688,13.192-14.994   c0.508-1.204,1.083-2.571,1.43-2.868c2.099-1.779,2.017-4.721,1.893-5.855C91.394,65.396,91.308,61.914,91.197,60.651z    M84.904,27.189c2.15,5.256,5.104,15.963,4.476,21.128c-0.175-0.294-0.354-0.587-0.536-0.883c-1.059-1.712-2.15-3.483-2.604-6.443   c-0.896-5.868-4.482-7.293-4.636-7.351c-0.465-0.179-0.994,0.055-1.176,0.525c-0.185,0.469,0.048,1.001,0.515,1.19   c0.112,0.045,2.756,1.169,3.478,5.913c0.51,3.33,1.757,5.35,2.856,7.131c0.735,1.19,1.367,2.229,1.719,3.513   c0.575,1.998,1.29,5.841-0.062,7.729c-1.496,1.032-5.269,2.562-10.932-2.419c-3.641-3.204-4.97-5.538-4.983-5.561   c-0.249-0.444-0.814-0.603-1.25-0.354c-0.443,0.247-0.602,0.805-0.357,1.248c0.058,0.104,1.468,2.607,5.374,6.046   c3.417,3.008,6.329,3.926,8.613,3.926c1.364,0,2.499-0.328,3.389-0.733c0.003,1.423-0.227,3.858-1.552,6.238   c-3.08,0.752-15.263,2.121-24.977-19.326c-0.003-0.005-0.008-0.016-0.01-0.021c-0.006-0.013-0.018-0.02-0.023-0.032   c-0.029-0.055-0.07-0.1-0.11-0.149c-0.029-0.035-0.049-0.078-0.082-0.108c-0.012-0.01-0.025-0.015-0.037-0.025   s-0.017-0.023-0.029-0.033c-0.038-0.028-0.082-0.037-0.122-0.059c-0.039-0.021-0.071-0.051-0.112-0.066   c-0.015-0.005-0.031-0.005-0.047-0.01c-0.062-0.02-0.124-0.024-0.188-0.03c-0.038-0.004-0.075-0.018-0.114-0.017   c-0.015,0-0.028,0.007-0.043,0.009c-0.067,0.005-0.13,0.025-0.194,0.045c-0.036,0.011-0.074-0.113-0.109-0.096   C61.035,48.117,61.033,48,61.031,48s-0.004,0-0.005,0c-0.011,0-0.018,0.137-0.028,0.143c-0.056,0.028-0.102,0.131-0.151,0.171   c-0.036,0.029-0.08,0.081-0.11,0.114c-0.01,0.011-0.015,0.041-0.023,0.052c-0.011,0.012-0.024,0.025-0.034,0.038   c-0.984,1.321-2.277,1.323-3.133,1.126l-0.535-0.448c-0.087-0.071-2.086-1.807-1.95-6.44c0.046-1.561,0.046-4.271,0.046-7.438   c0.001-2.603,0.002-5.68,0.034-8.699c1.522-0.671,4.98-1.749,7.103,1.122c1.149,1.551,1.57,3.028,1.252,4.392   c-0.33,1.412-1.382,2.394-2.184,2.805c-0.45,0.232-0.628,0.787-0.396,1.238c0.163,0.317,0.483,0.5,0.816,0.5   c0.142,0,0.285-0.033,0.422-0.102c1.133-0.583,2.479-1.85,3.027-3.68c0.747,0.02,2.871,0.316,4.253,2.974   c0.16,0.308,0.479,0.495,0.816,0.495c0.062,0,0.127-0.006,0.191-0.021c0.404-0.085,0.702-0.43,0.726-0.843   c0.007-0.124,0.228-3.034,3.738-3.264c3.018-0.196,5.031-1.211,5.529-2.783c0.203-0.644,0.297-1.925-1.362-3.26   c-0.937-0.754-0.953-1.301-0.978-2.13c-0.024-0.819-0.056-1.812-0.983-2.862c0.668-1.023,0.989-2.143,1.12-3.167   c0.126,0.139,0.243,0.27,0.376,0.416C80.699,20.756,83.565,23.916,84.904,27.189z M58.5,7.113c2.594,0,3.508,0.402,5.673,1.649   c1.143,0.657,2.337,0.726,3.316,0.573c0.166-0.026,0.321-0.055,0.481-0.055c0.104,0,0.262,0,0.611,0.333   c0.503,0.478,0.734,0.924,0.979,1.397c0.144,0.277,0.311,0.587,0.536,0.883c0.179,0.895,0.265,2.146-0.3,3.146   c-0.51,0.904-1.516,1.481-2.988,1.717c-0.503,0.079-0.846,0.551-0.764,1.053c0.071,0.453,0.462,0.774,0.907,0.774   c0.048,0,0.096-0.003,0.144-0.012c2.06-0.328,3.509-1.215,4.309-2.638c0.527-0.94,0.68-1.975,0.661-2.912   c0.136,0.022,0.267,0.049,0.419,0.06c1.69,0.119,2.718,0.788,3.661,2.388c0.078,0.132,0.186,0.279,0.288,0.424   c0.107,1.101,0.096,3.077-1.052,4.579c-1.011,1.324-2.747,2.035-5.161,2.109c-0.507,0.017-0.905,0.231-0.891,0.739   C69.348,23.817,69.755,24,70.251,24c0.01,0,0.019,0,0.028,0c2.367,0,4.236-0.484,5.593-1.621c0.352,0.482,0.366,1.031,0.385,1.63   c0.028,0.938,0.064,2.275,1.662,3.561c0.28,0.225,0.912,0.825,0.762,1.3c-0.194,0.614-1.495,1.359-3.895,1.516   c-2.66,0.173-4.126,1.561-4.854,2.946c-1.601-1.83-3.5-2.207-4.511-2.269c-0.036-1.209-0.438-2.715-1.699-4.419   c-2.357-3.183-6.017-2.928-8.557-2.026c0.023-1.452,0.057-2.855,0.102-4.16c0.497-1.309,1.622-3.554,3.604-3.952   c0.498-0.101,0.819-0.584,0.719-1.083c-0.099-0.498-0.577-0.823-1.083-0.721c-1.267,0.255-2.261,0.967-3.032,1.823   c0.085-1.072,0.19-1.938,0.321-2.513C56.272,10.467,57.588,7.113,58.5,7.113z M72.014,90.404c-0.947,0.475-2.478,1.126-3.807,1.52   c1.608-1.999,2.534-4.812,2.836-5.837c3.74-2.419,4.892-6.987,4.907-7.051c0.117-0.493-0.189-0.989-0.683-1.108   c-0.503-0.115-0.989,0.332-1.108,0.822C74.143,78.822,72.39,86,65.931,86h-0.002c-0.508,0-0.92,0.492-0.92,1s0.412,1,0.92,1h0.002   c1.029,0,1.956-0.37,2.797-0.619c-0.731,1.868-1.953,4.113-3.465,4.783c-0.04,0.018-0.08-0.031-0.12-0.018   c-2.774-0.59-7.96-2.729-8.036-5.916c-0.084-3.427-0.791-4.503-1.634-5.451c-0.244-0.273-0.376-0.429-0.474-0.735   c-0.45-1.418-1.149-12.113-0.021-15.131c0.881-2.347,0.495-3.388-0.099-4.504c-0.242-0.452-0.452-0.846-0.513-1.576   c-0.223-2.747,1.169-7.314,2.048-7.473l0.285-0.044c0.485,0.149,1.044,0.258,1.645,0.258c0.909,0,1.891-0.244,2.782-0.915   c1.604,3.617,4.349,10.552,3.897,13.156c-0.293,1.671-1.639,2.777-2.938,3.849c-1.37,1.125-2.788,2.291-2.907,4.109   c-0.101,1.521,0.73,3.173,2.617,5.201c1.563,1.681,1.362,3.041,0.714,3.697c-0.318,0.319-0.786,0.52-1.321,0.5   c-1.006-0.318-1.688-0.793-1.701-0.802c-0.036-0.025-0.078-0.032-0.116-0.052c-0.057-0.029-0.11-0.059-0.17-0.075   c-0.057-0.017-0.112-0.021-0.17-0.025c-0.06-0.006-0.116-0.011-0.176-0.005s-0.113,0.023-0.17,0.04   c-0.056,0.018-0.109,0.033-0.162,0.061c-0.052,0.027-0.096,0.065-0.143,0.104c-0.036,0.028-0.078,0.045-0.11,0.08   c-0.015,0.016-0.019,0.037-0.032,0.054c-0.009,0.012-0.023,0.018-0.032,0.03c-0.021,0.03-0.027,0.066-0.045,0.099   c-0.035,0.063-0.068,0.125-0.087,0.193c-0.015,0.049-0.017,0.098-0.022,0.147c-0.007,0.066-0.014,0.131-0.006,0.197   c0.006,0.052,0.021,0.1,0.036,0.149c0.018,0.062,0.035,0.123,0.066,0.181c0.026,0.051,0.064,0.093,0.102,0.138   c0.028,0.036,0.046,0.079,0.081,0.111c0.023,0.021,0.048,0.034,0.071,0.055c0.004,0.003,0.006,0.008,0.01,0.011   s0.028,0.02,0.037,0.025c0.772,0.667,1.59,1.005,2.375,1.095c0.62,0.181,1.317,0.316,2.078,0.316c0.745,0,1.537-0.125,2.347-0.443   c3.164-1.252,5.381-5.026,6.586-11.224c0.096-0.498-0.228-0.979-0.729-1.078c-0.488-0.101-0.979,0.23-1.077,0.729   c-1.062,5.45-2.943,8.857-5.441,9.856c-0.069,0.027-0.138,0.045-0.206,0.068c0.778-1.394,0.673-3.434-1.24-5.487   c-1.475-1.586-2.191-2.871-2.129-3.824c0.069-1.025,1.075-1.854,2.241-2.812c1.487-1.224,3.174-2.61,3.581-4.952   c0.205-1.181-0.063-2.902-0.551-4.769c6.743,9.076,13.847,10.762,18.181,10.762c1.093,0,1.995-0.107,2.687-0.23   c0.005,0.908-0.165,2.23-1.082,3.009c-0.099,0.084-0.193,0.178-0.285,0.281c-1.025,0.508-2.792,1.02-5.359,0.517   c-0.511-0.101-0.982,0.227-1.08,0.726c-0.099,0.5,0.228,0.981,0.726,1.079c0.864,0.168,1.657,0.24,2.383,0.24   c0.75,0,1.404-0.089,2.006-0.212c-0.157,0.359-0.318,0.742-0.492,1.155C82.193,80.904,79.514,87.274,72.014,90.404z"/><path d="M75.816,41.46c0.42-1.422-0.138-2.432-0.173-2.492c-0.246-0.428-0.785-0.576-1.226-0.339   c-0.438,0.234-0.604,0.789-0.381,1.234c0.021,0.042,0.5,1.051-0.874,2.479c-0.62,0.643-1.049,1.171-1.396,1.6   c-0.701,0.866-0.848,1.045-1.595,1.11c-0.889,0.071-2.438-0.952-4.746-3.037c-0.376-0.341-0.958-0.311-1.298,0.066   c-0.341,0.377-0.312,0.959,0.066,1.299c1.933,1.748,4.136,3.513,5.915,3.513c0.074,0,0.146-0.004,0.221-0.01   c1.527-0.13,2.088-0.825,2.866-1.785c0.321-0.395,0.716-0.884,1.288-1.479c0.159-0.165,0.3-0.329,0.429-0.49   c1.093,0.25,3.731,1.266,4.629,5.312c0.096,0.429,0.477,0.721,0.898,0.721c0.064,0,0.132-0.007,0.198-0.022   c0.496-0.11,0.81-0.601,0.7-1.097C80.418,43.895,77.776,42.071,75.816,41.46z"/><path d="M48.673,42.684c-0.046-1.547-0.046-4.229-0.046-7.367c0-8.271,0-18.563-0.711-21.629c-0.282-2.117-1.488-9.027-5.133-9.027   c-3.139,0-4.511,0.602-6.895,1.975c-1.026,0.59-1.322,0.339-1.718,0.276c-1.164-0.178-2.192,0.006-3.16,0.924   c-0.8,0.762-1.185,1.503-1.466,2.045c-0.365,0.703-0.373,0.717-0.918,0.754c-2.513,0.176-4.241,1.282-5.601,3.586   c-0.326,0.549-1.18,1.491-2.167,2.579c-2.214,2.442-5.247,5.787-6.75,9.459c-1.944,4.754-6.358,19.051-4.072,24.624   c-0.511,1.646-1.801,6.609,0.049,9.768c-0.11,1.263-0.195,4.744,1.65,8.265c-0.124,1.135-0.206,4.076,1.89,5.855   c0.351,0.297,0.924,1.664,1.432,2.868c1.811,4.306,4.842,11.512,13.115,14.958c0.434,0.216,4.304,2.121,6.7,2.121   c2.369,0,11.615-2.622,11.758-8.458c0.068-2.804,0.548-3.343,1.013-3.865c0.322-0.361,0.723-0.812,0.98-1.616   c0.572-1.808,1.323-13.135-0.021-16.731c-0.562-1.497-0.385-1.827-0.035-2.486c0.291-0.546,0.69-1.293,0.792-2.528   c0.15-1.837-0.411-7.026-2.466-9.176C47.748,48.588,48.778,46.294,48.673,42.684z M28.795,13.082   c0.153-0.011,0.284-0.038,0.421-0.06c-0.019,0.937,0.133,1.972,0.661,2.912c0.797,1.423,2.247,2.31,4.306,2.638   c0.049,0.008,0.098,0.012,0.146,0.012c0.444,0,0.834-0.322,0.906-0.774c0.08-0.502-0.261-0.974-0.763-1.053   c-1.473-0.236-2.479-0.813-2.989-1.717c-0.565-1-0.479-2.252-0.299-3.146c0.225-0.296,0.392-0.606,0.535-0.884   c0.246-0.472,0.477-0.918,0.979-1.396c0.35-0.333,0.508-0.333,0.612-0.333c0.158,0,0.315,0.028,0.479,0.055   c0.98,0.153,2.173,0.084,3.319-0.575c2.162-1.245,3.08-1.647,5.672-1.647c0.912,0,2.226,3.354,2.723,7.013   c0.125,0.545,0.228,1.374,0.31,2.409c-0.773-0.86-1.77-1.577-3.042-1.832c-0.497-0.103-0.983,0.223-1.082,0.721   c-0.101,0.498,0.223,0.982,0.721,1.083c1.988,0.4,3.114,2.661,3.608,3.968c0.044,1.298,0.076,2.697,0.098,4.147   c-2.538-0.903-6.199-1.16-8.558,2.024c-1.262,1.704-1.664,3.212-1.7,4.42c-1.012,0.063-2.913,0.447-4.512,2.273   c-0.726-1.385-2.191-2.766-4.853-2.939c-2.399-0.157-3.701-0.889-3.895-1.503c-0.15-0.475,0.482-1.049,0.763-1.274   c1.597-1.286,1.634-2.571,1.662-3.508c0.017-0.599,0.032-1.253,0.384-1.735C26.766,23.516,28.635,24,31.002,24   c0.01,0,0.019,0,0.029,0c0.496,0,0.904-0.183,0.919-0.681c0.016-0.508-0.383-0.827-0.891-0.844   c-2.408-0.074-4.142-0.728-5.155-2.047c-1.149-1.495-1.161-3.462-1.054-4.568c0.101-0.143,0.207-0.274,0.284-0.404   C26.08,13.856,27.106,13.2,28.795,13.082z M16.378,27.189c1.338-3.273,4.204-6.433,6.297-8.741c0.132-0.146,0.25-0.277,0.375-0.416   c0.131,1.023,0.452,2.143,1.119,3.166c-0.929,1.049-0.959,2.043-0.983,2.862c-0.024,0.829-0.04,1.375-0.976,2.13   c-1.661,1.335-1.566,2.616-1.362,3.26c0.497,1.571,2.511,2.586,5.528,2.783c3.41,0.224,3.714,2.96,3.737,3.264   c0.026,0.413,0.323,0.758,0.727,0.843c0.065,0.015,0.128,0.021,0.192,0.021c0.337,0,0.655-0.187,0.815-0.495   c1.381-2.654,3.499-2.956,4.253-2.973c0.549,1.83,1.895,3.096,3.029,3.68c0.134,0.069,0.278,0.102,0.419,0.102   c0.334,0,0.656-0.182,0.819-0.5c0.232-0.451,0.054-1.006-0.398-1.238c-0.801-0.412-1.854-1.394-2.183-2.805   c-0.317-1.364,0.103-2.841,1.251-4.392c2.13-2.875,5.586-1.796,7.105-1.124c0.031,3.016,0.031,6.096,0.031,8.701   c0,3.169,0.001,5.878,0.046,7.439c0.137,4.633-1.863,6.37-1.934,6.43l-0.58,0.468c-0.855,0.19-2.13,0.176-3.106-1.129   c-0.009-0.012-0.021-0.017-0.031-0.028c-0.01-0.012-0.015-0.027-0.025-0.039c-0.032-0.035-0.077-0.056-0.114-0.086   c-0.048-0.038-0.092-0.201-0.146-0.228C40.274,48.138,40.268,48,40.256,48c-0.001,0-0.002,0-0.004,0   c-0.003,0-0.004,0.117-0.007,0.116c-0.038-0.018-0.078,0.046-0.116,0.034c-0.061-0.019-0.119-0.007-0.183-0.013   c-0.016-0.001-0.031,0.006-0.047,0.006c-0.044-0.001-0.084,0.021-0.127,0.025c-0.059,0.006-0.116,0.015-0.174,0.032   c-0.015,0.005-0.031,0.006-0.046,0.011c-0.044,0.017-0.081,0.049-0.123,0.072c-0.038,0.021-0.08,0.029-0.115,0.055   c-0.012,0.009-0.018,0.024-0.029,0.033c-0.012,0.01-0.026,0.015-0.037,0.024c-0.034,0.031-0.055,0.076-0.085,0.112   c-0.038,0.048-0.079,0.092-0.106,0.145c-0.006,0.012-0.018,0.02-0.023,0.032c-0.001,0.001-0.003,0.006-0.003,0.007   s-0.002,0.002-0.002,0.003c-9.713,21.46-21.9,20.09-24.982,19.336c-1.325-2.38-1.555-4.814-1.552-6.238   c0.89,0.405,2.024,0.733,3.388,0.733c2.286,0,5.199-0.92,8.615-3.926c3.906-3.438,5.315-5.941,5.374-6.046   c0.246-0.443,0.085-1.001-0.357-1.248c-0.444-0.247-1.002-0.086-1.251,0.354c-0.013,0.022-1.344,2.356-4.981,5.561   c-5.66,4.979-9.433,3.454-10.932,2.421l-0.001-0.002c-1.364-1.901-0.617-5.818-0.039-7.798c0.356-1.251,0.975-2.275,1.696-3.443   c1.101-1.782,2.347-3.802,2.856-7.131c0.72-4.72,3.341-5.856,3.477-5.912c0.469-0.183,0.705-0.711,0.526-1.183   c-0.181-0.477-0.716-0.716-1.186-0.534c-0.153,0.057-3.741,1.482-4.635,7.351c-0.452,2.96-1.545,4.73-2.603,6.443   c-0.183,0.297-0.363,0.59-0.538,0.885C11.273,43.154,14.227,32.445,16.378,27.189z M46.913,58.832   c-0.06,0.73-0.269,1.123-0.51,1.578c-0.594,1.113-0.978,2.152-0.098,4.497c1.127,3.018,0.429,13.712-0.019,15.128   c-0.098,0.306-0.232,0.457-0.476,0.73c-0.844,0.945-1.55,2.009-1.634,5.438c-0.078,3.186-5.262,5.297-8.036,5.889   c-0.04-0.016-0.081-0.021-0.121-0.038c-1.513-0.67-2.733-3.025-3.464-4.894c0.84,0.25,1.766,0.398,2.795,0.398   c0.426-0.023,0.923-0.27,0.923-0.779c0-0.508-0.412-0.779-0.919-0.779c-0.001,0-0.002,0-0.003,0c-1.538,0-2.8-0.537-3.842-1.135   c-0.014-0.008-0.028-0.085-0.043-0.093c-3.28-1.911-4.29-5.91-4.344-6.13c-0.121-0.493-0.618-0.817-1.108-0.695   c-0.494,0.12-0.798,0.604-0.68,1.098c0.015,0.063,1.166,4.628,4.907,7.047c0.301,1.025,1.228,3.838,2.837,5.837   c-1.466-0.435-3.123-1.179-3.885-1.56c-7.422-3.094-10.104-9.464-11.876-13.679c-0.174-0.413-0.335-0.797-0.493-1.156   c0.602,0.122,1.257,0.212,2.007,0.212c0.724,0,1.518-0.072,2.381-0.24c0.5-0.098,0.824-0.579,0.727-1.079   c-0.098-0.499-0.594-0.829-1.079-0.726c-2.573,0.501-4.338-0.009-5.362-0.517c-0.092-0.104-0.187-0.197-0.286-0.281   c-0.916-0.778-1.085-2.1-1.08-3.008c0.69,0.122,1.593,0.229,2.686,0.229c4.335,0,11.439-1.687,18.182-10.763   c-0.488,1.866-0.757,3.588-0.552,4.77c0.408,2.342,2.094,3.729,3.581,4.952c1.167,0.958,2.173,1.786,2.242,2.812   c0.063,0.953-0.654,2.238-2.129,3.824c-1.913,2.054-2.019,4.094-1.239,5.487c-0.069-0.023-0.137-0.041-0.206-0.068   c-2.5-0.999-4.381-4.406-5.442-9.856c-0.1-0.501-0.584-0.834-1.079-0.729c-0.498,0.099-0.824,0.58-0.727,1.078   c1.206,6.197,3.421,9.972,6.585,11.224c0.81,0.318,1.604,0.443,2.347,0.443c0.761,0,1.459-0.136,2.079-0.316   c0.786-0.09,1.604-0.429,2.378-1.098c0.008-0.005,0.03-0.02,0.033-0.022s0.005-0.007,0.009-0.01   c0.024-0.021,0.049-0.034,0.073-0.056c0.035-0.032,0.051-0.074,0.08-0.109c0.038-0.047,0.076-0.09,0.104-0.142   c0.029-0.055,0.045-0.11,0.062-0.169c0.017-0.055,0.034-0.107,0.04-0.164c0.006-0.061,0-0.118-0.005-0.179   c-0.005-0.057-0.009-0.111-0.025-0.167c-0.018-0.062-0.048-0.116-0.078-0.173c-0.02-0.037-0.026-0.078-0.051-0.113   c-0.01-0.015-0.026-0.021-0.038-0.035c-0.012-0.015-0.016-0.034-0.029-0.049c-0.032-0.035-0.075-0.052-0.111-0.081   c-0.044-0.036-0.086-0.073-0.136-0.101c-0.056-0.029-0.114-0.047-0.174-0.064c-0.053-0.016-0.104-0.032-0.159-0.038   c-0.061-0.007-0.12-0.001-0.181,0.005c-0.057,0.005-0.111,0.009-0.167,0.024c-0.061,0.017-0.115,0.047-0.172,0.076   c-0.038,0.021-0.08,0.026-0.115,0.052c-0.012,0.01-0.689,0.482-1.688,0.801c-0.541,0.021-1.015-0.18-1.334-0.499   c-0.649-0.656-0.852-2.017,0.713-3.697c1.887-2.028,2.719-3.681,2.618-5.201c-0.121-1.818-1.538-2.984-2.907-4.109   c-1.302-1.071-2.647-2.178-2.937-3.849c-0.453-2.604,2.292-9.54,3.895-13.157c0.891,0.671,1.874,0.916,2.782,0.916   c0.607,0,1.17-0.11,1.66-0.263l0.271,0.049C45.747,51.519,47.138,56.085,46.913,58.832z"/><path d="M20.643,49.14c0.067,0.015,0.134,0.022,0.2,0.022c0.421,0,0.801-0.292,0.897-0.721c0.896-4.045,3.535-5.061,4.627-5.312   c0.129,0.162,0.271,0.326,0.43,0.491c0.573,0.594,0.969,1.083,1.288,1.478c0.778,0.96,1.34,1.655,2.867,1.785   c0.073,0.006,0.146,0.01,0.22,0.01c1.781,0,3.981-1.766,5.916-3.513c0.377-0.34,0.406-0.922,0.066-1.299   c-0.34-0.377-0.922-0.403-1.299-0.066c-2.308,2.087-3.901,3.108-4.745,3.037c-0.749-0.064-0.894-0.244-1.595-1.11   c-0.346-0.429-0.774-0.957-1.395-1.599c-1.353-1.403-0.912-2.403-0.876-2.477c0.238-0.437,0.084-0.988-0.35-1.237   c-0.44-0.25-1.002-0.101-1.256,0.339c-0.035,0.061-0.594,1.069-0.174,2.493c-1.959,0.611-4.601,2.435-5.521,6.583   C19.833,48.539,20.147,49.03,20.643,49.14z"/></g><text x="0" y="115" fill="#000000" font-size="5px" font-weight="bold" font-family="'Helvetica Neue', Helvetica, Arial-Unicode, Arial, Sans-serif">Created by 녕진소</text><text x="0" y="120" fill="#000000" font-size="5px" font-weight="bold" font-family="'Helvetica Neue', Helvetica, Arial-Unicode, Arial, Sans-serif">from the Noun Project</text></svg>